<?xml version="1.0" encoding="utf-8"?>
<!-- Generator: Adobe Illustrator 16.0.0, SVG Export Plug-In . SVG Version: 6.00 Build 0)  -->
<!DOCTYPE svg PUBLIC "-//W3C//DTD SVG 1.1//EN" "http://www.w3.org/Graphics/SVG/1.1/DTD/svg11.dtd">
<svg version="1.1" id="Layer_1" xmlns="http://www.w3.org/2000/svg" xmlns:xlink="http://www.w3.org/1999/xlink" x="0px" y="0px"
	 width="1400px" height="980px" viewBox="0 0 1400 980" enable-background="new 0 0 1400 980" xml:space="preserve">
<g>
	<g>
		<rect x="-6804.6" y="-1485.2" fill="#FFFFFF" width="371.8" height="260.3"/>
	</g>
	<g>
		<rect x="-6693.9" y="-1419.2" fill="#E6E7E8" width="144.3" height="86.4"/>
		<path d="M-6549.5-1332.3h-144.3c-0.3,0-0.5-0.2-0.5-0.5v-86.4c0-0.3,0.2-0.5,0.5-0.5h144.3c0.3,0,0.5,0.2,0.5,0.5v86.4
			C-6549-1332.6-6549.2-1332.3-6549.5-1332.3z M-6693.4-1333.3h143.3v-85.4h-143.3V-1333.3z"/>
	</g>
	<g>
		<rect x="-6689.3" y="-1414.6" fill="#DBF2FF" width="135.1" height="77.2"/>
		<path d="M-6554.1-1336.9h-135.1c-0.3,0-0.5-0.2-0.5-0.5v-77.2c0-0.3,0.2-0.5,0.5-0.5h135.1c0.3,0,0.5,0.2,0.5,0.5v77.2
			C-6553.6-1337.2-6553.9-1336.9-6554.1-1336.9z M-6688.8-1337.9h134.1v-76.2h-134.1V-1337.9z"/>
	</g>
	<g>
		<path d="M-6549.5-1315.1h-144.3c-0.3,0-0.5-0.2-0.5-0.5v-17.3c0-0.3,0.2-0.5,0.5-0.5h144.3c0.3,0,0.5,0.2,0.5,0.5v17.3
			C-6549-1315.3-6549.2-1315.1-6549.5-1315.1z M-6693.4-1316.1h143.3v-16.3h-143.3V-1316.1z"/>
	</g>
	<g>
		<rect x="-6681" y="-1408.1" fill="#FFD1C8" width="15.8" height="15.8"/>
		<path d="M-6665.2-1391.8h-15.8c-0.3,0-0.5-0.2-0.5-0.5v-15.8c0-0.3,0.2-0.5,0.5-0.5h15.8c0.3,0,0.5,0.2,0.5,0.5v15.8
			C-6664.7-1392-6664.9-1391.8-6665.2-1391.8z M-6680.5-1392.8h14.8v-14.8h-14.8V-1392.8z"/>
	</g>
	<g>
		<rect x="-6625.7" y="-1408.1" fill="#FFEAB3" width="38" height="38"/>
		<path d="M-6587.7-1369.6h-38c-0.3,0-0.5-0.2-0.5-0.5v-38c0-0.3,0.2-0.5,0.5-0.5h38c0.3,0,0.5,0.2,0.5,0.5v38
			C-6587.2-1369.8-6587.4-1369.6-6587.7-1369.6z M-6625.2-1370.6h37v-37h-37V-1370.6z"/>
	</g>
	<g>
		<rect x="-6599.7" y="-1382.1" fill="#FFD1C8" width="38" height="38"/>
		<path d="M-6561.7-1343.5h-38c-0.3,0-0.5-0.2-0.5-0.5v-38c0-0.3,0.2-0.5,0.5-0.5h38c0.3,0,0.5,0.2,0.5,0.5v38
			C-6561.2-1343.8-6561.4-1343.5-6561.7-1343.5z M-6599.2-1344.5h37v-37h-37V-1344.5z"/>
	</g>
	<g>
		<rect x="-6681" y="-1385.9" fill="#E6E7E8" width="15.8" height="15.8"/>
		<path d="M-6665.2-1369.6h-15.8c-0.3,0-0.5-0.2-0.5-0.5v-15.8c0-0.3,0.2-0.5,0.5-0.5h15.8c0.3,0,0.5,0.2,0.5,0.5v15.8
			C-6664.7-1369.8-6664.9-1369.6-6665.2-1369.6z M-6680.5-1370.6h14.8v-14.8h-14.8V-1370.6z"/>
	</g>
	<g>
		<rect x="-6681" y="-1363.7" fill="#FFEAB3" width="15.8" height="15.8"/>
		<path d="M-6665.2-1347.4h-15.8c-0.3,0-0.5-0.2-0.5-0.5v-15.8c0-0.3,0.2-0.5,0.5-0.5h15.8c0.3,0,0.5,0.2,0.5,0.5v15.8
			C-6664.7-1347.6-6664.9-1347.4-6665.2-1347.4z M-6680.5-1348.4h14.8v-14.8h-14.8V-1348.4z"/>
	</g>
	<g>
		<g>
			<polygon fill="#FFFFFF" points="-6576.2,-1349.1 -6582.8,-1365.9 -6566.1,-1359.2 -6573.7,-1356.7 			"/>
			<path d="M-6576.2-1348.6c-0.2,0-0.4-0.1-0.5-0.3l-6.6-16.7c-0.1-0.2,0-0.4,0.1-0.5c0.1-0.1,0.4-0.2,0.5-0.1l16.7,6.6
				c0.2,0.1,0.3,0.3,0.3,0.5c0,0.2-0.1,0.4-0.3,0.5l-7.4,2.4l-2.4,7.4C-6575.8-1348.8-6576-1348.6-6576.2-1348.6
				C-6576.2-1348.6-6576.2-1348.6-6576.2-1348.6z M-6581.9-1365l5.7,14.4l2.1-6.3c0-0.2,0.2-0.3,0.3-0.3l6.3-2.1L-6581.9-1365z"/>
		</g>
		<g>
			<path d="M-6564.5-1347c-0.1,0-0.3,0-0.4-0.1l-9.2-9.2c-0.2-0.2-0.2-0.5,0-0.7c0.2-0.2,0.5-0.2,0.7,0l9.2,9.2
				c0.2,0.2,0.2,0.5,0,0.7C-6564.2-1347.1-6564.4-1347-6564.5-1347z"/>
		</g>
	</g>
	<g>
		<rect x="-6638.9" y="-1315.6" fill="#E6E7E8" width="34.3" height="15.5"/>
		<path d="M-6604.5-1299.6h-34.3c-0.3,0-0.5-0.2-0.5-0.5v-15.5c0-0.3,0.2-0.5,0.5-0.5h34.3c0.3,0,0.5,0.2,0.5,0.5v15.5
			C-6604-1299.8-6604.2-1299.6-6604.5-1299.6z M-6638.4-1300.6h33.3v-14.5h-33.3V-1300.6z"/>
	</g>
	<g>
		<path d="M-6599.4-1299.6h-44.6c-0.3,0-0.5-0.2-0.5-0.5s0.2-0.5,0.5-0.5h44.6c0.3,0,0.5,0.2,0.5,0.5S-6599.1-1299.6-6599.4-1299.6z
			"/>
	</g>
	<g>
		<g>
			<rect x="-6759.6" y="-1328" fill="#E6E7E8" width="51.2" height="12.5"/>
			<path d="M-6708.4-1315.1h-51.2c-0.3,0-0.5-0.2-0.5-0.5v-12.5c0-0.3,0.2-0.5,0.5-0.5h51.2c0.3,0,0.5,0.2,0.5,0.5v12.5
				C-6707.9-1315.3-6708.1-1315.1-6708.4-1315.1z M-6759.1-1316.1h50.2v-11.5h-50.2V-1316.1z"/>
		</g>
		<g>
			<polygon fill="#D2FFCF" points="-6741.1,-1368.2 -6721,-1356.6 -6741.1,-1345 			"/>
			<path d="M-6741.1-1344.5c-0.1,0-0.2,0-0.3-0.1c-0.2-0.1-0.3-0.3-0.3-0.4v-23.2c0-0.2,0.1-0.3,0.3-0.4c0.2-0.1,0.3-0.1,0.5,0
				l20.1,11.6c0.2,0.1,0.3,0.3,0.3,0.4s-0.1,0.3-0.3,0.4l-20.1,11.6C-6740.9-1344.5-6741-1344.5-6741.1-1344.5z M-6740.6-1367.3
				v21.5l18.6-10.7L-6740.6-1367.3z"/>
		</g>
		<g>
			<path d="M-6734-1338c-10.2,0-18.6-8.3-18.6-18.6s8.3-18.6,18.6-18.6s18.6,8.3,18.6,18.6S-6723.7-1338-6734-1338z M-6734-1374.1
				c-9.7,0-17.6,7.9-17.6,17.6s7.9,17.6,17.6,17.6s17.6-7.9,17.6-17.6S-6724.3-1374.1-6734-1374.1z"/>
		</g>
		<g>
			<path d="M-6729.2-1321.3h-9.4c-0.3,0-0.5-0.2-0.5-0.5s0.2-0.5,0.5-0.5h9.4c0.3,0,0.5,0.2,0.5,0.5S-6729-1321.3-6729.2-1321.3z"/>
		</g>
		<g>
			<rect x="-6759.6" y="-1393.6" fill="#E6E7E8" width="51.2" height="8.5"/>
			<path d="M-6708.4-1384.6h-51.2c-0.3,0-0.5-0.2-0.5-0.5v-8.5c0-0.3,0.2-0.5,0.5-0.5h51.2c0.3,0,0.5,0.2,0.5,0.5v8.5
				C-6707.9-1384.8-6708.1-1384.6-6708.4-1384.6z M-6759.1-1385.6h50.2v-7.5h-50.2V-1385.6z"/>
		</g>
		<g>
			<path d="M-6708.4-1327.5h-51.2c-0.3,0-0.5-0.2-0.5-0.5v-57.1c0-0.3,0.2-0.5,0.5-0.5h51.2c0.3,0,0.5,0.2,0.5,0.5v57.1
				C-6707.9-1327.8-6708.1-1327.5-6708.4-1327.5z M-6759.1-1328.5h50.2v-56.1h-50.2V-1328.5z"/>
		</g>
		<g>
			<path d="M-6741.1-1386.4c-0.3,0-0.5-0.2-0.5-0.5v-5c0-0.3,0.2-0.5,0.5-0.5s0.5,0.2,0.5,0.5v5
				C-6740.6-1386.6-6740.8-1386.4-6741.1-1386.4z"/>
		</g>
		<g>
			<path d="M-6734-1386.4c-0.3,0-0.5-0.2-0.5-0.5v-5c0-0.3,0.2-0.5,0.5-0.5s0.5,0.2,0.5,0.5v5
				C-6733.5-1386.6-6733.7-1386.4-6734-1386.4z"/>
		</g>
		<g>
			<path d="M-6726.8-1386.4c-0.3,0-0.5-0.2-0.5-0.5v-5c0-0.3,0.2-0.5,0.5-0.5s0.5,0.2,0.5,0.5v5
				C-6726.3-1386.6-6726.5-1386.4-6726.8-1386.4z"/>
		</g>
	</g>
	<g>
		<path d="M-6605.6-1362.6h-50.5c-0.3,0-0.5-0.2-0.5-0.5s0.2-0.5,0.5-0.5h50.5c0.3,0,0.5,0.2,0.5,0.5S-6605.3-1362.6-6605.6-1362.6z
			"/>
	</g>
	<g>
		<path d="M-6605.6-1355h-50.5c-0.3,0-0.5-0.2-0.5-0.5s0.2-0.5,0.5-0.5h50.5c0.3,0,0.5,0.2,0.5,0.5S-6605.3-1355-6605.6-1355z"/>
	</g>
	<g>
		<path d="M-6629.2-1347.4h-26.8c-0.3,0-0.5-0.2-0.5-0.5s0.2-0.5,0.5-0.5h26.8c0.3,0,0.5,0.2,0.5,0.5S-6629-1347.4-6629.2-1347.4z"
			/>
	</g>
	<g>
		<path d="M-6637.9-1369.6h-18.2c-0.3,0-0.5-0.2-0.5-0.5s0.2-0.5,0.5-0.5h18.2c0.3,0,0.5,0.2,0.5,0.5S-6637.6-1369.6-6637.9-1369.6z
			"/>
	</g>
	<g>
		<path d="M-6637.9-1377.5h-18.2c-0.3,0-0.5-0.2-0.5-0.5s0.2-0.5,0.5-0.5h18.2c0.3,0,0.5,0.2,0.5,0.5S-6637.6-1377.5-6637.9-1377.5z
			"/>
	</g>
	<g>
		<path d="M-6637.9-1407.6h-18.2c-0.3,0-0.5-0.2-0.5-0.5s0.2-0.5,0.5-0.5h18.2c0.3,0,0.5,0.2,0.5,0.5S-6637.6-1407.6-6637.9-1407.6z
			"/>
	</g>
	<g>
		<path d="M-6645.3-1399.7h-10.7c-0.3,0-0.5-0.2-0.5-0.5s0.2-0.5,0.5-0.5h10.7c0.3,0,0.5,0.2,0.5,0.5S-6645.1-1399.7-6645.3-1399.7z
			"/>
	</g>
	<g>
		<path d="M-6636.8-1399.7h-4.1c-0.3,0-0.5-0.2-0.5-0.5s0.2-0.5,0.5-0.5h4.1c0.3,0,0.5,0.2,0.5,0.5S-6636.5-1399.7-6636.8-1399.7z"
			/>
	</g>
	<g>
		<path d="M-6625.7-1385.4h-30.3c-0.3,0-0.5-0.2-0.5-0.5s0.2-0.5,0.5-0.5h30.3c0.3,0,0.5,0.2,0.5,0.5S-6625.5-1385.4-6625.7-1385.4z
			"/>
	</g>
	<g>
		<g>
			<g>
				<path d="M-6722.6-1271.6h-25.5c-6.9,0-12.5-5.6-12.5-12.5v-4c0-6.9,5.6-12.5,12.5-12.5h25.5c6.9,0,12.5,5.6,12.5,12.5v4
					C-6710.1-1277.2-6715.8-1271.6-6722.6-1271.6z M-6748.1-1299.6c-6.3,0-11.5,5.2-11.5,11.5v4c0,6.3,5.2,11.5,11.5,11.5h25.5
					c6.3,0,11.5-5.2,11.5-11.5v-4c0-6.3-5.2-11.5-11.5-11.5H-6748.1z"/>
			</g>
			<g>
				<path fill="#DBF2FF" d="M-6728.4-1283.8c-1.3,0-2.3-1-2.3-2.3l0,0c0-1.3,1-2.3,2.3-2.3h10.1c1.3,0,2.3,1,2.3,2.3l0,0
					c0,1.3-1,2.3-2.3,2.3H-6728.4z"/>
				<path d="M-6718.4-1283.3h-10.1c-1.5,0-2.8-1.3-2.8-2.8c0-1.5,1.3-2.8,2.8-2.8h10.1c1.5,0,2.8,1.3,2.8,2.8
					C-6715.6-1284.6-6716.8-1283.3-6718.4-1283.3z M-6728.4-1287.9c-1,0-1.8,0.8-1.8,1.8c0,1,0.8,1.8,1.8,1.8h10.1
					c1,0,1.8-0.8,1.8-1.8c0-1-0.8-1.8-1.8-1.8H-6728.4z"/>
			</g>
			<g>
				<path d="M-6733.2-1285.6c-0.3,0-0.5-0.2-0.5-0.5c0-2.7,2-4.8,4.6-5.1v-8.9c0-0.3,0.2-0.5,0.5-0.5s0.5,0.2,0.5,0.5v9.4
					c0,0.3-0.2,0.5-0.5,0.5c-2.3,0-4.1,1.9-4.1,4.1C-6732.7-1285.8-6733-1285.6-6733.2-1285.6z"/>
			</g>
			<g>
				<path d="M-6728.6-1271.6c-0.3,0-0.5-0.2-0.5-0.5v-4.7c0-0.3,0.2-0.5,0.5-0.5s0.5,0.2,0.5,0.5v4.7
					C-6728.1-1271.8-6728.3-1271.6-6728.6-1271.6z"/>
			</g>
		</g>
		<g>
			<path d="M-6705.8-1285.6h-4.8c-0.3,0-0.5-0.2-0.5-0.5s0.2-0.5,0.5-0.5h4.8c0.3,0,0.5,0.2,0.5,0.5S-6705.5-1285.6-6705.8-1285.6z"
				/>
		</g>
		<g>
			<path d="M-6698.3-1285.6h-4.7c-0.3,0-0.5-0.2-0.5-0.5s0.2-0.5,0.5-0.5h4.7c0.3,0,0.5,0.2,0.5,0.5S-6698-1285.6-6698.3-1285.6z"/>
		</g>
	</g>
	<g>
		<g>
			<polygon fill="#FFEAB3" points="-6526,-1365 -6519.5,-1365 -6519.5,-1362.3 -6507.5,-1362.3 -6495.7,-1362.3 -6495.7,-1365 
				-6489.2,-1365 -6489.2,-1362.3 -6489.1,-1362.3 -6479,-1368.6 -6479,-1385.2 -6536,-1385.2 -6536,-1368.6 -6526,-1362.4 			"/>
			<path d="M-6489.1-1361.8L-6489.1-1361.8c-0.4,0-0.6-0.2-0.6-0.5v-2.2h-5.5v2.2c0,0.3-0.2,0.5-0.5,0.5h-23.8
				c-0.3,0-0.5-0.2-0.5-0.5v-2.2h-5.5v2.1c0,0.2-0.1,0.3-0.3,0.4c-0.2,0.1-0.4,0.1-0.5,0l-10-6.2c-0.1-0.1-0.2-0.3-0.2-0.4v-16.7
				c0-0.3,0.2-0.5,0.5-0.5h57c0.3,0,0.5,0.2,0.5,0.5v16.7c0,0.2-0.1,0.3-0.2,0.4l-10.1,6.3
				C-6488.9-1361.8-6489-1361.8-6489.1-1361.8z M-6519-1362.8h22.8v-2.2c0-0.3,0.2-0.5,0.5-0.5h6.5c0.3,0,0.5,0.2,0.5,0.5v1.8
				l9.2-5.7v-15.9h-56v15.9l9,5.6v-1.7c0-0.3,0.2-0.5,0.5-0.5h6.5c0.3,0,0.5,0.2,0.5,0.5V-1362.8z"/>
		</g>
		<g>
			<polygon fill="#FFEAB3" points="-6489.1,-1362.3 -6489.2,-1362.3 -6489.2,-1357.2 -6495.7,-1357.2 -6495.7,-1362.3 
				-6507.5,-1362.3 -6519.5,-1362.3 -6519.5,-1357.2 -6526,-1357.2 -6526,-1362.4 -6536,-1368.6 -6536,-1344.7 -6479,-1344.7 
				-6479,-1368.6 			"/>
			<path d="M-6479-1344.2h-57c-0.3,0-0.5-0.2-0.5-0.5v-23.8c0-0.2,0.1-0.3,0.3-0.4c0.2-0.1,0.4-0.1,0.5,0l10,6.2
				c0.1,0.1,0.2,0.3,0.2,0.4v4.6h5.5v-4.6c0-0.3,0.2-0.5,0.5-0.5h23.8c0.3,0,0.5,0.2,0.5,0.5v4.6h5.5v-4.6c0-0.3,0.2-0.5,0.4-0.5
				l10-6.2c0.2-0.1,0.3-0.1,0.5,0c0.2,0.1,0.3,0.3,0.3,0.4v23.8C-6478.5-1344.5-6478.7-1344.2-6479-1344.2z M-6535.5-1345.2h56
				v-22.4l-9.2,5.7v4.7c0,0.3-0.2,0.5-0.5,0.5h-6.5c-0.3,0-0.5-0.2-0.5-0.5v-4.6h-22.8v4.6c0,0.3-0.2,0.5-0.5,0.5h-6.5
				c-0.3,0-0.5-0.2-0.5-0.5v-4.9l-9-5.6V-1345.2z"/>
		</g>
		<g>
			<path d="M-6519.5-1356.7h-6.5c-0.3,0-0.5-0.2-0.5-0.5v-7.8c0-0.3,0.2-0.5,0.5-0.5h6.5c0.3,0,0.5,0.2,0.5,0.5v7.8
				C-6519-1357-6519.2-1356.7-6519.5-1356.7z M-6525.5-1357.7h5.5v-6.8h-5.5V-1357.7z"/>
		</g>
		<g>
			<path d="M-6489.2-1356.7h-6.5c-0.3,0-0.5-0.2-0.5-0.5v-7.8c0-0.3,0.2-0.5,0.5-0.5h6.5c0.3,0,0.5,0.2,0.5,0.5v7.8
				C-6488.7-1357-6488.9-1356.7-6489.2-1356.7z M-6495.2-1357.7h5.5v-6.8h-5.5V-1357.7z"/>
		</g>
		<g>
			<path d="M-6494.6-1384.7c-0.3,0-0.5-0.2-0.5-0.5v-4.8c0-2.7-2.2-4.9-4.9-4.9h-15.1c-2.7,0-4.9,2.2-4.9,4.9v4.8
				c0,0.3-0.2,0.5-0.5,0.5s-0.5-0.2-0.5-0.5v-4.8c0-3.2,2.6-5.9,5.9-5.9h15.1c3.2,0,5.9,2.6,5.9,5.9v4.8
				C-6494.1-1385-6494.3-1384.7-6494.6-1384.7z"/>
		</g>
	</g>
	<g>
		<rect x="-6535.4" y="-1328.8" fill="#DBF2FF" width="52.4" height="67.6"/>
		<path d="M-6483.1-1260.7h-52.4c-0.3,0-0.5-0.2-0.5-0.5v-67.6c0-0.3,0.2-0.5,0.5-0.5h52.4c0.3,0,0.5,0.2,0.5,0.5v67.6
			C-6482.6-1260.9-6482.8-1260.7-6483.1-1260.7z M-6534.9-1261.7h51.4v-66.6h-51.4V-1261.7z"/>
	</g>
	<g>
		<rect x="-6528.3" y="-1321.8" fill="#FFD1C8" width="9.8" height="9.8"/>
		<path d="M-6518.4-1311.5h-9.8c-0.3,0-0.5-0.2-0.5-0.5v-9.8c0-0.3,0.2-0.5,0.5-0.5h9.8c0.3,0,0.5,0.2,0.5,0.5v9.8
			C-6517.9-1311.7-6518.1-1311.5-6518.4-1311.5z M-6527.8-1312.5h8.8v-8.8h-8.8V-1312.5z"/>
	</g>
	<g>
		<rect x="-6528.3" y="-1304" fill="#FFD1C8" width="9.8" height="9.8"/>
		<path d="M-6518.4-1293.6h-9.8c-0.3,0-0.5-0.2-0.5-0.5v-9.8c0-0.3,0.2-0.5,0.5-0.5h9.8c0.3,0,0.5,0.2,0.5,0.5v9.8
			C-6517.9-1293.8-6518.1-1293.6-6518.4-1293.6z M-6527.8-1294.6h8.8v-8.8h-8.8V-1294.6z"/>
	</g>
	<g>
		<path d="M-6518.4-1275.7h-9.8c-0.3,0-0.5-0.2-0.5-0.5v-9.8c0-0.3,0.2-0.5,0.5-0.5h9.8c0.3,0,0.5,0.2,0.5,0.5v9.8
			C-6517.9-1276-6518.1-1275.7-6518.4-1275.7z M-6527.8-1276.7h8.8v-8.8h-8.8V-1276.7z"/>
	</g>
	<g>
		<path d="M-6490.6-1321.3h-22.7c-0.3,0-0.5-0.2-0.5-0.5s0.2-0.5,0.5-0.5h22.7c0.3,0,0.5,0.2,0.5,0.5S-6490.3-1321.3-6490.6-1321.3z
			"/>
	</g>
	<g>
		<path d="M-6490.6-1297.4h-22.7c-0.3,0-0.5-0.2-0.5-0.5s0.2-0.5,0.5-0.5h22.7c0.3,0,0.5,0.2,0.5,0.5S-6490.3-1297.4-6490.6-1297.4z
			"/>
	</g>
	<g>
		<path d="M-6499.1-1280.2h-14.2c-0.3,0-0.5-0.2-0.5-0.5s0.2-0.5,0.5-0.5h14.2c0.3,0,0.5,0.2,0.5,0.5S-6498.8-1280.2-6499.1-1280.2z
			"/>
	</g>
	<g>
		<path d="M-6484.5-1284.9h-28.8c-0.3,0-0.5-0.2-0.5-0.5s0.2-0.5,0.5-0.5h28.8c0.3,0,0.5,0.2,0.5,0.5S-6484.2-1284.9-6484.5-1284.9z
			"/>
	</g>
	<g>
		<path d="M-6499.1-1275.7h-14.2c-0.3,0-0.5-0.2-0.5-0.5s0.2-0.5,0.5-0.5h14.2c0.3,0,0.5,0.2,0.5,0.5S-6498.8-1275.7-6499.1-1275.7z
			"/>
	</g>
	<g>
		<path d="M-6500.1-1311.5h-13.2c-0.3,0-0.5-0.2-0.5-0.5s0.2-0.5,0.5-0.5h13.2c0.3,0,0.5,0.2,0.5,0.5S-6499.8-1311.5-6500.1-1311.5z
			"/>
	</g>
	<g>
		<path fill="#E6E7E8" d="M-6539.1-1304c-11.1,0-20.4,7.8-22.7,18.2h-37.6c-2.8,0-5.1,2.3-5.1,5.1c0,2.8,2.3,5.1,5.1,5.1h37.6
			c2.3,10.4,11.6,18.2,22.7,18.2c12.9,0,23.3-10.4,23.3-23.3S-6526.3-1304-6539.1-1304z M-6539.1-1263.5c-9.5,0-17.2-7.7-17.2-17.2
			c0-9.5,7.7-17.2,17.2-17.2c9.5,0,17.2,7.7,17.2,17.2C-6521.9-1271.2-6529.6-1263.5-6539.1-1263.5z"/>
		<path d="M-6539.1-1256.9c-10.9,0-20.6-7.6-23.1-18.2h-37.2c-3.1,0-5.6-2.5-5.6-5.6c0-3.1,2.5-5.6,5.6-5.6h37.2
			c2.5-10.6,12.2-18.2,23.1-18.2c13.1,0,23.8,10.7,23.8,23.8C-6515.4-1267.6-6526-1256.9-6539.1-1256.9z M-6599.4-1285.3
			c-2.5,0-4.6,2.1-4.6,4.6c0,2.5,2.1,4.6,4.6,4.6h37.6c0.2,0,0.4,0.2,0.5,0.4c2.3,10.3,11.6,17.8,22.2,17.8
			c12.6,0,22.8-10.2,22.8-22.8c0-12.6-10.2-22.8-22.8-22.8c-10.6,0-19.9,7.5-22.2,17.8c-0.1,0.2-0.3,0.4-0.5,0.4H-6599.4z
			 M-6539.1-1263c-9.8,0-17.7-8-17.7-17.7c0-9.8,8-17.7,17.7-17.7l0,0c9.8,0,17.7,8,17.7,17.7S-6529.4-1263-6539.1-1263z
			 M-6539.1-1297.4c-9.2,0-16.7,7.5-16.7,16.7c0,9.2,7.5,16.7,16.7,16.7s16.7-7.5,16.7-16.7S-6529.9-1297.4-6539.1-1297.4
			L-6539.1-1297.4z"/>
	</g>
	<g>
		<circle fill="#FFFFFF" cx="-6539.1" cy="-1280.7" r="17.2"/>
		<path d="M-6539.1-1263c-9.8,0-17.7-8-17.7-17.7c0-9.8,8-17.7,17.7-17.7c9.8,0,17.7,8,17.7,17.7S-6529.4-1263-6539.1-1263z
			 M-6539.1-1297.4c-9.2,0-16.7,7.5-16.7,16.7c0,9.2,7.5,16.7,16.7,16.7s16.7-7.5,16.7-16.7S-6529.9-1297.4-6539.1-1297.4z"/>
	</g>
	<g>
		<path d="M-6710.5-1452.9c1.7-2.3,4.2-3.4,7.4-3.4c3.2,0,5.7,1.1,7.4,3.4c1.5,2,2.3,4.7,2.3,8c0,3.3-0.8,6-2.3,8
			c-1.7,2.2-4.2,3.3-7.4,3.3s-5.7-1.1-7.4-3.3c-1.5-2-2.3-4.7-2.3-8C-6712.7-1448.2-6712-1450.8-6710.5-1452.9z M-6709.7-1437.6
			c1.5,2.1,3.7,3.2,6.6,3.2c2.9,0,5.1-1.1,6.6-3.2c1.3-1.8,2-4.3,2-7.3c0-3-0.7-5.4-2-7.3c-1.5-2.1-3.7-3.2-6.6-3.2
			c-2.9,0-5.1,1.1-6.6,3.2c-1.3,1.9-2,4.3-2,7.3C-6711.7-1441.9-6711-1439.4-6709.7-1437.6z"/>
		<path d="M-6689.4-1455.8h12.7v1h-11.7v9h9.3v0.9h-9.3v10.9h-1V-1455.8z"/>
		<path d="M-6673.5-1455.8h12.7v1h-11.7v9h9.3v0.9h-9.3v10.9h-1V-1455.8z"/>
		<path d="M-6657.5-1455.8h1v21.8h-1V-1455.8z"/>
		<path d="M-6637.4-1435.5c-1.5,1.3-3.5,2-5.9,2c-3.1,0-5.5-1.1-7-3.4c-1.4-2-2-4.6-2-7.8s0.7-5.9,2.1-8c1.6-2.3,4-3.5,7.2-3.5
			c2.2,0,4,0.6,5.5,1.8c1.1,0.8,1.8,1.9,2.3,3.1l-0.9,0.5c-1-3-3.3-4.5-7-4.5c-2.7,0-4.8,1.1-6.2,3.4c-1.2,1.9-1.8,4.3-1.8,7.2
			c0,2.9,0.6,5.3,1.7,7.1c1.4,2.2,3.4,3.3,6.1,3.3c2.2,0,3.9-0.6,5.3-1.8c1.1-0.9,1.7-2.1,2.1-3.5l0.9,0.5
			C-6635.5-1437.8-6636.3-1436.5-6637.4-1435.5z"/>
		<path d="M-6630.8-1455.8h13.3v1h-12.3v9h9.7v0.9h-9.7v9.9h12.6v1h-13.6V-1455.8z"/>
		<path d="M-6605.5-1455.8h1v21.8h-1V-1455.8z"/>
		<path d="M-6585.4-1435.5c-1.5,1.3-3.5,2-5.9,2c-3.1,0-5.5-1.1-7-3.4c-1.4-2-2-4.6-2-7.8s0.7-5.9,2.1-8c1.6-2.3,4-3.5,7.2-3.5
			c2.2,0,4,0.6,5.5,1.8c1.1,0.8,1.8,1.9,2.3,3.1l-0.9,0.5c-1-3-3.3-4.5-7-4.5c-2.7,0-4.8,1.1-6.2,3.4c-1.2,1.9-1.8,4.3-1.8,7.2
			c0,2.9,0.6,5.3,1.7,7.1c1.4,2.2,3.4,3.3,6.1,3.3c2.2,0,3.9-0.6,5.3-1.8c1.1-0.9,1.7-2.1,2.1-3.5l0.9,0.5
			C-6583.6-1437.8-6584.3-1436.5-6585.4-1435.5z"/>
		<path d="M-6577.4-1452.9c1.7-2.3,4.2-3.4,7.4-3.4c3.2,0,5.7,1.1,7.4,3.4c1.5,2,2.3,4.7,2.3,8c0,3.3-0.8,6-2.3,8
			c-1.7,2.2-4.2,3.3-7.4,3.3s-5.7-1.1-7.4-3.3c-1.5-2-2.3-4.7-2.3-8C-6579.7-1448.2-6578.9-1450.8-6577.4-1452.9z M-6576.7-1437.6
			c1.5,2.1,3.7,3.2,6.6,3.2c2.9,0,5.1-1.1,6.6-3.2c1.3-1.8,2-4.3,2-7.3c0-3-0.7-5.4-2-7.3c-1.5-2.1-3.7-3.2-6.6-3.2
			s-5.1,1.1-6.6,3.2c-1.3,1.9-2,4.3-2,7.3C-6578.6-1441.9-6578-1439.4-6576.7-1437.6z"/>
		<path d="M-6556.3-1455.8h1l13.7,20.1v-20.1h1v21.8h-1l-13.7-20v20h-1V-1455.8z"/>
		<path d="M-6535.8-1440.6c0.1,1.9,0.7,3.4,1.9,4.5c1.1,1.1,2.7,1.7,4.6,1.7c1.7,0,3.1-0.4,4.2-1.3c1.3-0.9,1.9-2.2,1.9-3.8
			c0-1.7-0.7-2.9-2-3.8c-0.7-0.4-2.1-1-4.4-1.6c0,0-0.2-0.1-0.4-0.1c-2.5-0.7-4.1-1.4-4.8-2c-1-0.9-1.5-2.1-1.5-3.6
			c0-1.9,0.6-3.3,1.9-4.3c1.2-0.9,2.7-1.4,4.6-1.4c2,0,3.7,0.6,4.9,1.7c1.3,1.1,2,2.7,2.1,4.7h-1c0-1.8-0.6-3.1-1.8-4.1
			c-1.1-0.9-2.5-1.4-4.3-1.4c-1.6,0-2.9,0.4-3.9,1.2c-1.1,0.8-1.6,2.1-1.6,3.6c0,1.1,0.4,2.1,1.3,2.9c0.7,0.6,2.1,1.2,4.3,1.8
			c0,0,0.1,0,0.2,0c0.1,0,0.2,0,0.3,0.1c2.3,0.6,3.9,1.2,4.8,1.8c1.5,1,2.3,2.4,2.3,4.2c0,2-0.7,3.6-2.2,4.7c-1.3,1-3,1.5-5.1,1.5
			c-2.2,0-4-0.6-5.2-1.9c-1.3-1.2-2-3-2.2-5.2H-6535.8z"/>
	</g>
	<g>
		<path d="M-6491.6-1444.2h-18.7c-0.3,0-0.5-0.2-0.5-0.5s0.2-0.5,0.5-0.5h18.7c0.3,0,0.5,0.2,0.5,0.5S-6491.3-1444.2-6491.6-1444.2z
			"/>
	</g>
	<g>
		<path d="M-6725.1-1444.2h-18.7c-0.3,0-0.5-0.2-0.5-0.5s0.2-0.5,0.5-0.5h18.7c0.3,0,0.5,0.2,0.5,0.5S-6724.8-1444.2-6725.1-1444.2z
			"/>
	</g>
	<g>
		<path d="M-6705.8-1418.7h-28.6c-0.3,0-0.5-0.2-0.5-0.5s0.2-0.5,0.5-0.5h28.6c0.3,0,0.5,0.2,0.5,0.5S-6705.5-1418.7-6705.8-1418.7z
			"/>
	</g>
	<g>
		<path d="M-6723.4-1409.5h-27.6c-0.3,0-0.5-0.2-0.5-0.5s0.2-0.5,0.5-0.5h27.6c0.3,0,0.5,0.2,0.5,0.5S-6723.1-1409.5-6723.4-1409.5z
			"/>
	</g>
	<g>
		<path d="M-6735.4-1427.8h-11.4c-0.3,0-0.5-0.2-0.5-0.5s0.2-0.5,0.5-0.5h11.4c0.3,0,0.5,0.2,0.5,0.5S-6735.1-1427.8-6735.4-1427.8z
			"/>
	</g>
	<g>
		<path d="M-6519.5-1421h-18c-0.3,0-0.5-0.2-0.5-0.5s0.2-0.5,0.5-0.5h18c0.3,0,0.5,0.2,0.5,0.5S-6519.2-1421-6519.5-1421z"/>
	</g>
	<g>
		<path d="M-6501.9-1428.8h-4.7c-0.3,0-0.5-0.2-0.5-0.5s0.2-0.5,0.5-0.5h4.7c0.3,0,0.5,0.2,0.5,0.5S-6501.7-1428.8-6501.9-1428.8z"
			/>
	</g>
	<g>
		<path d="M-6501.9-1406h-34c-0.3,0-0.5-0.2-0.5-0.5s0.2-0.5,0.5-0.5h34c0.3,0,0.5,0.2,0.5,0.5S-6501.7-1406-6501.9-1406z"/>
	</g>
	<g>
		<g>
			<path fill="#FFD1C8" d="M-6627.6-1305.3h-48.7c-2.2,0-4,1.8-4,4v33.6c0,2.2,1.8,4,4,4h32.6l12.1,12.1v-12.1h4c2.2,0,4-1.8,4-4
				v-33.6C-6623.6-1303.5-6625.4-1305.3-6627.6-1305.3z"/>
			<path d="M-6631.5-1251.1c-0.1,0-0.3-0.1-0.4-0.1l-12-12h-32.4c-2.5,0-4.5-2-4.5-4.5v-33.6c0-2.5,2-4.5,4.5-4.5h48.7
				c2.5,0,4.5,2,4.5,4.5v33.6c0,2.5-2,4.5-4.5,4.5h-3.5v11.6c0,0.2-0.1,0.4-0.3,0.5C-6631.4-1251.1-6631.5-1251.1-6631.5-1251.1z
				 M-6676.3-1304.8c-1.9,0-3.5,1.6-3.5,3.5v33.6c0,1.9,1.6,3.5,3.5,3.5h32.6c0.1,0,0.3,0.1,0.4,0.1l11.3,11.3v-10.9
				c0-0.3,0.2-0.5,0.5-0.5h4c1.9,0,3.5-1.6,3.5-3.5v-33.6c0-1.9-1.6-3.5-3.5-3.5H-6676.3z"/>
		</g>
		<g>
			<line fill="#FFFFFF" x1="-6673.7" y1="-1295.1" x2="-6664.2" y2="-1295.1"/>
			<path d="M-6664.2-1294.6h-9.5c-0.3,0-0.5-0.2-0.5-0.5s0.2-0.5,0.5-0.5h9.5c0.3,0,0.5,0.2,0.5,0.5S-6663.9-1294.6-6664.2-1294.6z"
				/>
		</g>
		<g>
			<line fill="#FFFFFF" x1="-6654.8" y1="-1295.1" x2="-6630.1" y2="-1295.1"/>
			<path d="M-6630.1-1294.6h-24.7c-0.3,0-0.5-0.2-0.5-0.5s0.2-0.5,0.5-0.5h24.7c0.3,0,0.5,0.2,0.5,0.5S-6629.8-1294.6-6630.1-1294.6
				z"/>
		</g>
		<g>
			<line fill="#FFFFFF" x1="-6673.7" y1="-1287.9" x2="-6659.8" y2="-1287.9"/>
			<path d="M-6659.8-1287.4h-14c-0.3,0-0.5-0.2-0.5-0.5s0.2-0.5,0.5-0.5h14c0.3,0,0.5,0.2,0.5,0.5S-6659.5-1287.4-6659.8-1287.4z"/>
		</g>
		<g>
			<line fill="#FFFFFF" x1="-6654.5" y1="-1287.9" x2="-6648.8" y2="-1287.9"/>
			<path d="M-6648.8-1287.4h-5.8c-0.3,0-0.5-0.2-0.5-0.5s0.2-0.5,0.5-0.5h5.8c0.3,0,0.5,0.2,0.5,0.5S-6648.5-1287.4-6648.8-1287.4z"
				/>
		</g>
		<g>
			<line fill="#FFFFFF" x1="-6643.4" y1="-1287.9" x2="-6630.1" y2="-1287.9"/>
			<path d="M-6630.1-1287.4h-13.3c-0.3,0-0.5-0.2-0.5-0.5s0.2-0.5,0.5-0.5h13.3c0.3,0,0.5,0.2,0.5,0.5S-6629.8-1287.4-6630.1-1287.4
				z"/>
		</g>
		<g>
			<line fill="#FFFFFF" x1="-6651.9" y1="-1280.8" x2="-6630.1" y2="-1280.8"/>
			<path d="M-6630.1-1280.3h-21.8c-0.3,0-0.5-0.2-0.5-0.5s0.2-0.5,0.5-0.5h21.8c0.3,0,0.5,0.2,0.5,0.5S-6629.8-1280.3-6630.1-1280.3
				z"/>
		</g>
		<g>
			<line fill="#FFFFFF" x1="-6673.7" y1="-1280.8" x2="-6668" y2="-1280.8"/>
			<path d="M-6668-1280.3h-5.8c-0.3,0-0.5-0.2-0.5-0.5s0.2-0.5,0.5-0.5h5.8c0.3,0,0.5,0.2,0.5,0.5S-6667.7-1280.3-6668-1280.3z"/>
		</g>
		<g>
			<line fill="#FFFFFF" x1="-6673.7" y1="-1273.7" x2="-6642.4" y2="-1273.7"/>
			<path d="M-6642.4-1273.2h-31.3c-0.3,0-0.5-0.2-0.5-0.5s0.2-0.5,0.5-0.5h31.3c0.3,0,0.5,0.2,0.5,0.5S-6642.2-1273.2-6642.4-1273.2
				z"/>
		</g>
	</g>
	<g>
		<path d="M-6528.4-1278.5c-0.1,0-0.3,0-0.4-0.1l-8.9-8.9c-0.2-0.2-0.2-0.5,0-0.7s0.5-0.2,0.7,0l8.9,8.9c0.2,0.2,0.2,0.5,0,0.7
			C-6528.1-1278.6-6528.3-1278.5-6528.4-1278.5z"/>
	</g>
	<g>
		<path d="M-6533.7-1270.7c-0.1,0-0.3,0-0.4-0.1l-15.8-15.8c-0.2-0.2-0.2-0.5,0-0.7c0.2-0.2,0.5-0.2,0.7,0l15.8,15.8
			c0.2,0.2,0.2,0.5,0,0.7C-6533.4-1270.7-6533.5-1270.7-6533.7-1270.7z"/>
	</g>
</g>
<g>
	<g>
		<rect fill="#414042" width="1400" height="980"/>
	</g>
</g>
<g>
	<g>
		<g>
			<path fill="#FFFFFF" d="M820.1,719.7h-244c-28,0-50.9-22.8-50.9-50.9V311.1c0-28,22.8-50.9,50.9-50.9h244
				c28,0,50.9,22.8,50.9,50.9v357.8C871,696.9,848.2,719.7,820.1,719.7z M576.1,262.7c-26.7,0-48.4,21.7-48.4,48.4v357.8
				c0,26.7,21.7,48.4,48.4,48.4h244c26.7,0,48.4-21.7,48.4-48.4V311.1c0-26.7-21.7-48.4-48.4-48.4H576.1z"/>
		</g>
		<g>
			<path fill="#FFFFFF" d="M824.3,676.3H572c-9.8,0-17.8-8-17.8-17.8V321.5c0-9.8,8-17.8,17.8-17.8h252.3c9.8,0,17.8,8,17.8,17.8
				v337.1C842.1,668.3,834.1,676.3,824.3,676.3z M572,306.1c-8.4,0-15.3,6.9-15.3,15.3v337.1c0,8.4,6.9,15.3,15.3,15.3h252.3
				c8.4,0,15.3-6.9,15.3-15.3V321.5c0-8.4-6.9-15.3-15.3-15.3H572z"/>
		</g>
		<g>
			<path fill="#FFFFFF" d="M726.4,706h-56.5c-0.7,0-1.2-0.6-1.2-1.2v-15.2c0-0.7,0.6-1.2,1.2-1.2h56.5c0.7,0,1.2,0.6,1.2,1.2v15.2
				C727.6,705.4,727.1,706,726.4,706z M671.1,703.5h54.1v-12.7h-54.1V703.5z"/>
		</g>
		<g>
			<path fill="#FFFFFF" d="M698.1,291.7c-4.1,0-7.4-3.3-7.4-7.4c0-4.1,3.3-7.4,7.4-7.4c4.1,0,7.4,3.3,7.4,7.4
				C705.6,288.3,702.2,291.7,698.1,291.7z M698.1,279.3c-2.7,0-5,2.2-5,5c0,2.7,2.2,5,5,5c2.7,0,5-2.2,5-5
				C703.1,281.5,700.9,279.3,698.1,279.3z"/>
		</g>
		<g>
			<path fill="#FFFFFF" d="M808.9,643.9H587.3c-0.7,0-1.2-0.6-1.2-1.2c0-0.7,0.6-1.2,1.2-1.2h221.6c0.7,0,1.2,0.6,1.2,1.2
				C810.2,643.4,809.6,643.9,808.9,643.9z"/>
		</g>
		<g>
			<path fill="#FFFFFF" d="M591.1,614.3c-0.4,0-0.8-0.2-1-0.6c-0.4-0.6-0.2-1.3,0.4-1.7l60-37.9c0.4-0.2,0.9-0.3,1.2,0l45,24.3
				l101.2-85.7c0.5-0.4,1.3-0.4,1.7,0.1c0.4,0.5,0.4,1.3-0.1,1.7l-101.8,86.2c-0.4,0.3-0.9,0.4-1.4,0.1l-45.1-24.4l-59.4,37.5
				C591.6,614.2,591.3,614.3,591.1,614.3z"/>
		</g>
		<g>
			<path fill="#FFFFFF" d="M605.4,643.9c-0.7,0-1.2-0.6-1.2-1.2V604c0-0.7,0.6-1.2,1.2-1.2s1.2,0.6,1.2,1.2v38.7
				C606.7,643.4,606.1,643.9,605.4,643.9z"/>
		</g>
		<g>
			<path fill="#FFFFFF" d="M627.8,643.9c-0.7,0-1.2-0.6-1.2-1.2v-52.9c0-0.7,0.6-1.2,1.2-1.2c0.7,0,1.2,0.6,1.2,1.2v52.9
				C629.1,643.4,628.5,643.9,627.8,643.9z"/>
		</g>
		<g>
			<path fill="#FFFFFF" d="M651,643.9c-0.7,0-1.2-0.6-1.2-1.2v-67.4c0-0.7,0.6-1.2,1.2-1.2s1.2,0.6,1.2,1.2v67.4
				C652.3,643.4,651.7,643.9,651,643.9z"/>
		</g>
		<g>
			<path fill="#FFFFFF" d="M673.8,643.9c-0.7,0-1.2-0.6-1.2-1.2v-55.3c0-0.7,0.6-1.2,1.2-1.2c0.7,0,1.2,0.6,1.2,1.2v55.3
				C675.1,643.4,674.5,643.9,673.8,643.9z"/>
		</g>
		<g>
			<path fill="#FFFFFF" d="M696.8,643.9c-0.7,0-1.2-0.6-1.2-1.2v-42.8c0-0.7,0.6-1.2,1.2-1.2c0.7,0,1.2,0.6,1.2,1.2v42.8
				C698.1,643.4,697.5,643.9,696.8,643.9z"/>
		</g>
		<g>
			<path fill="#FFFFFF" d="M719.8,643.9c-0.7,0-1.2-0.6-1.2-1.2v-62.3c0-0.7,0.6-1.2,1.2-1.2c0.7,0,1.2,0.6,1.2,1.2v62.3
				C721.1,643.4,720.5,643.9,719.8,643.9z"/>
		</g>
		<g>
			<path fill="#FFFFFF" d="M742.8,643.9c-0.7,0-1.2-0.6-1.2-1.2v-81.8c0-0.7,0.6-1.2,1.2-1.2c0.7,0,1.2,0.6,1.2,1.2v81.8
				C744.1,643.4,743.5,643.9,742.8,643.9z"/>
		</g>
		<g>
			<path fill="#FFFFFF" d="M765.8,643.9c-0.7,0-1.2-0.6-1.2-1.2V541.4c0-0.7,0.6-1.2,1.2-1.2c0.7,0,1.2,0.6,1.2,1.2v101.3
				C767.1,643.4,766.5,643.9,765.8,643.9z"/>
		</g>
		<g>
			<path fill="#FFFFFF" d="M789.1,643.9c-0.7,0-1.2-0.6-1.2-1.2V521.9c0-0.7,0.6-1.2,1.2-1.2s1.2,0.6,1.2,1.2v120.7
				C790.3,643.4,789.8,643.9,789.1,643.9z"/>
		</g>
		<g>
			<path fill="#FFFFFF" d="M660.4,409.5h-73.1c-0.7,0-1.2-0.6-1.2-1.2v-73.1c0-0.7,0.6-1.2,1.2-1.2h73.1c0.7,0,1.2,0.6,1.2,1.2v73.1
				C661.6,409,661.1,409.5,660.4,409.5z M588.6,407.1h70.6v-70.6h-70.6V407.1z"/>
		</g>
		<g>
			<path fill="#FFFFFF" d="M597.1,388.2c-0.3,0-0.6-0.1-0.9-0.4c-0.5-0.5-0.5-1.3,0-1.7l17.1-17.1c0.5-0.5,1.3-0.5,1.7,0l12.6,12.6
				l19.1-19.1c0.5-0.5,1.3-0.5,1.7,0c0.5,0.5,0.5,1.3,0,1.7l-20,20c-0.5,0.5-1.3,0.5-1.7,0l-12.6-12.6L598,387.8
				C597.8,388.1,597.5,388.2,597.1,388.2z"/>
		</g>
		<g>
			<path fill="#FFFFFF" d="M685.7,435.7h-98.4c-0.7,0-1.2-0.6-1.2-1.2c0-0.7,0.6-1.2,1.2-1.2h98.4c0.7,0,1.2,0.6,1.2,1.2
				C687,435.2,686.4,435.7,685.7,435.7z"/>
		</g>
		<g>
			<path fill="#FFFFFF" d="M685.7,457.6h-98.4c-0.7,0-1.2-0.6-1.2-1.2c0-0.7,0.6-1.2,1.2-1.2h98.4c0.7,0,1.2,0.6,1.2,1.2
				C687,457.1,686.4,457.6,685.7,457.6z"/>
		</g>
		<g>
			<path fill="#FFFFFF" d="M685.7,479.5h-98.4c-0.7,0-1.2-0.6-1.2-1.2c0-0.7,0.6-1.2,1.2-1.2h98.4c0.7,0,1.2,0.6,1.2,1.2
				C687,479,686.4,479.5,685.7,479.5z"/>
		</g>
		<g>
			<path fill="#FFFFFF" d="M685.7,501.4h-98.4c-0.7,0-1.2-0.6-1.2-1.2c0-0.7,0.6-1.2,1.2-1.2h98.4c0.7,0,1.2,0.6,1.2,1.2
				C687,500.8,686.4,501.4,685.7,501.4z"/>
		</g>
		<g>
			<path fill="#FFFFFF" d="M808.9,336.5h-66.1c-0.7,0-1.2-0.6-1.2-1.2c0-0.7,0.6-1.2,1.2-1.2h66.1c0.7,0,1.2,0.6,1.2,1.2
				C810.2,335.9,809.6,336.5,808.9,336.5z"/>
		</g>
		<g>
			<path fill="#FFFFFF" d="M808.9,357.9h-66.1c-0.7,0-1.2-0.6-1.2-1.2c0-0.7,0.6-1.2,1.2-1.2h66.1c0.7,0,1.2,0.6,1.2,1.2
				C810.2,357.3,809.6,357.9,808.9,357.9z"/>
		</g>
		<g>
			<path fill="#FFFFFF" d="M808.9,379.2h-66.1c-0.7,0-1.2-0.6-1.2-1.2c0-0.7,0.6-1.2,1.2-1.2h66.1c0.7,0,1.2,0.6,1.2,1.2
				C810.2,378.7,809.6,379.2,808.9,379.2z"/>
		</g>
		<g>
			<path fill="#FFFFFF" d="M732.8,517.9c-6.2,0-11.3-5.1-11.3-11.3s5.1-11.3,11.3-11.3c6.2,0,11.3,5.1,11.3,11.3
				S739,517.9,732.8,517.9z M732.8,497.7c-4.9,0-8.8,4-8.8,8.8c0,4.9,4,8.8,8.8,8.8c4.9,0,8.8-4,8.8-8.8
				C741.6,501.7,737.6,497.7,732.8,497.7z"/>
		</g>
		<g>
			<path fill="#FFFFFF" d="M778.8,485.2c-11.6,0-21.1-9.5-21.1-21.1c0-11.6,9.5-21.1,21.1-21.1c11.6,0,21.1,9.5,21.1,21.1
				C799.9,475.8,790.4,485.2,778.8,485.2z M778.8,445.5c-10.3,0-18.6,8.4-18.6,18.6s8.4,18.6,18.6,18.6s18.6-8.4,18.6-18.6
				S789.1,445.5,778.8,445.5z"/>
		</g>
		<g>
			<path fill="#FFFFFF" d="M732.8,427.4c-6.2,0-11.3-5.1-11.3-11.3s5.1-11.3,11.3-11.3c6.2,0,11.3,5.1,11.3,11.3
				S739,427.4,732.8,427.4z M732.8,407.2c-4.9,0-8.8,4-8.8,8.8c0,4.9,4,8.8,8.8,8.8c4.9,0,8.8-4,8.8-8.8
				C741.6,411.2,737.6,407.2,732.8,407.2z"/>
		</g>
		<g>
			<path fill="#FFFFFF" d="M739.4,500.3c-0.3,0-0.7-0.1-0.9-0.4c-0.5-0.5-0.4-1.3,0.1-1.7l24.4-21.8c0.5-0.5,1.3-0.4,1.7,0.1
				c0.5,0.5,0.4,1.3-0.1,1.7L740.3,500C740,500.2,739.7,500.3,739.4,500.3z"/>
		</g>
		<g>
			<path fill="#FFFFFF" d="M765.8,450.3c-0.3,0-0.6-0.1-0.9-0.3l-26.4-25.5c-0.5-0.5-0.5-1.3,0-1.7c0.5-0.5,1.3-0.5,1.7,0l26.4,25.5
				c0.5,0.5,0.5,1.3,0,1.7C766.5,450.2,766.2,450.3,765.8,450.3z"/>
		</g>
	</g>
	<g>
		<path fill="#FFFFFF" d="M908.6,359.8c-0.7,0-1.2-0.6-1.2-1.2v-83.5c0-0.7,0.6-1.2,1.2-1.2h122.1c0.7,0,1.2,0.6,1.2,1.2
			s-0.6,1.2-1.2,1.2H909.8v82.3C909.8,359.3,909.2,359.8,908.6,359.8z"/>
	</g>
	<g>
		<path fill="#FFFFFF" d="M491.8,359.8c-0.7,0-1.2-0.6-1.2-1.2v-82.3H369.7c-0.7,0-1.2-0.6-1.2-1.2s0.6-1.2,1.2-1.2h122.1
			c0.7,0,1.2,0.6,1.2,1.2v83.5C493,359.3,492.5,359.8,491.8,359.8z"/>
	</g>
	<g>
		<g>
			<path fill="#FFFFFF" d="M821.2,930.2H578.8c-0.7,0-1.2-0.6-1.2-1.2V761.5c0-0.7,0.6-1.2,1.2-1.2h242.4c0.7,0,1.2,0.6,1.2,1.2
				v167.4C822.4,929.6,821.9,930.2,821.2,930.2z M580,927.7H820V762.8H580V927.7z"/>
		</g>
		<g>
			<g>
				<path fill="#FFFFFF" d="M621.9,909.5h-13c-0.7,0-1.2-0.6-1.2-1.2v-16.8c0-0.7,0.6-1.2,1.2-1.2h13c0.7,0,1.2,0.6,1.2,1.2v16.8
					C623.1,909,622.6,909.5,621.9,909.5z M610.1,907h10.5v-14.4h-10.5V907z"/>
			</g>
			<g>
				<path fill="#FFFFFF" d="M634.9,909.5h-13c-0.7,0-1.2-0.6-1.2-1.2v-35.2c0-0.7,0.6-1.2,1.2-1.2h13c0.7,0,1.2,0.6,1.2,1.2v35.2
					C636.2,909,635.6,909.5,634.9,909.5z M623.1,907h10.5v-32.8h-10.5V907z"/>
			</g>
			<g>
				<path fill="#FFFFFF" d="M647.9,909.5h-13c-0.7,0-1.2-0.6-1.2-1.2v-43.6c0-0.7,0.6-1.2,1.2-1.2h13c0.7,0,1.2,0.6,1.2,1.2v43.6
					C649.2,909,648.6,909.5,647.9,909.5z M636.2,907h10.5v-41.2h-10.5V907z"/>
			</g>
			<g>
				<path fill="#FFFFFF" d="M661,909.5h-13c-0.7,0-1.2-0.6-1.2-1.2v-37.1c0-0.7,0.6-1.2,1.2-1.2h13c0.7,0,1.2,0.6,1.2,1.2v37.1
					C662.2,909,661.6,909.5,661,909.5z M649.2,907h10.6v-34.7h-10.6V907z"/>
			</g>
			<g>
				<path fill="#FFFFFF" d="M674,909.5h-13c-0.7,0-1.2-0.6-1.2-1.2v-59c0-0.7,0.6-1.2,1.2-1.2h13c0.7,0,1.2,0.6,1.2,1.2v59
					C675.2,909,674.7,909.5,674,909.5z M662.2,907h10.6v-56.5h-10.6V907z"/>
			</g>
			<g>
				<path fill="#FFFFFF" d="M687,909.5h-13c-0.7,0-1.2-0.6-1.2-1.2v-78.1c0-0.7,0.6-1.2,1.2-1.2h13c0.7,0,1.2,0.6,1.2,1.2v78.1
					C688.2,909,687.7,909.5,687,909.5z M675.2,907h10.5v-75.6h-10.5V907z"/>
			</g>
			<g>
				<path fill="#FFFFFF" d="M700,909.5h-13c-0.7,0-1.2-0.6-1.2-1.2v-95.7c0-0.7,0.6-1.2,1.2-1.2h13c0.7,0,1.2,0.6,1.2,1.2v95.7
					C701.2,909,700.7,909.5,700,909.5z M688.2,907h10.5v-93.2h-10.5V907z"/>
			</g>
			<g>
				<path fill="#FFFFFF" d="M713,909.5h-13c-0.7,0-1.2-0.6-1.2-1.2v-43.6c0-0.7,0.6-1.2,1.2-1.2h13c0.7,0,1.2,0.6,1.2,1.2v43.6
					C714.2,909,713.7,909.5,713,909.5z M701.2,907h10.5v-41.2h-10.5V907z"/>
			</g>
			<g>
				<path fill="#FFFFFF" d="M726,909.5h-13c-0.7,0-1.2-0.6-1.2-1.2v-35.2c0-0.7,0.6-1.2,1.2-1.2h13c0.7,0,1.2,0.6,1.2,1.2v35.2
					C727.3,909,726.7,909.5,726,909.5z M714.2,907h10.5v-32.8h-10.5V907z"/>
			</g>
			<g>
				<path fill="#FFFFFF" d="M739,909.5h-13c-0.7,0-1.2-0.6-1.2-1.2v-26.8c0-0.7,0.6-1.2,1.2-1.2h13c0.7,0,1.2,0.6,1.2,1.2v26.8
					C740.3,909,739.7,909.5,739,909.5z M727.3,907h10.5v-24.3h-10.5V907z"/>
			</g>
			<g>
				<path fill="#FFFFFF" d="M752.1,909.5h-13c-0.7,0-1.2-0.6-1.2-1.2v-43.6c0-0.7,0.6-1.2,1.2-1.2h13c0.7,0,1.2,0.6,1.2,1.2v43.6
					C753.3,909,752.7,909.5,752.1,909.5z M740.3,907h10.5v-41.2h-10.5V907z"/>
			</g>
			<g>
				<path fill="#FFFFFF" d="M765.1,909.5h-13c-0.7,0-1.2-0.6-1.2-1.2v-26.8c0-0.7,0.6-1.2,1.2-1.2h13c0.7,0,1.2,0.6,1.2,1.2v26.8
					C766.3,909,765.8,909.5,765.1,909.5z M753.3,907h10.5v-24.3h-10.5V907z"/>
			</g>
			<g>
				<path fill="#FFFFFF" d="M778.1,909.5h-13c-0.7,0-1.2-0.6-1.2-1.2v-37.1c0-0.7,0.6-1.2,1.2-1.2h13c0.7,0,1.2,0.6,1.2,1.2v37.1
					C779.3,909,778.8,909.5,778.1,909.5z M766.3,907h10.5v-34.7h-10.5V907z"/>
			</g>
			<g>
				<path fill="#FFFFFF" d="M791.1,909.5h-13c-0.7,0-1.2-0.6-1.2-1.2v-26.8c0-0.7,0.6-1.2,1.2-1.2h13c0.7,0,1.2,0.6,1.2,1.2v26.8
					C792.3,909,791.8,909.5,791.1,909.5z M779.3,907h10.5v-24.3h-10.5V907z"/>
			</g>
		</g>
		<g>
			<path fill="#FFFFFF" d="M650.1,789.7h-41.2c-0.7,0-1.2-0.6-1.2-1.2c0-0.7,0.6-1.2,1.2-1.2h41.2c0.7,0,1.2,0.6,1.2,1.2
				C651.3,789.1,650.8,789.7,650.1,789.7z"/>
		</g>
		<g>
			<path fill="#FFFFFF" d="M639,803.5h-30.1c-0.7,0-1.2-0.6-1.2-1.2s0.6-1.2,1.2-1.2H639c0.7,0,1.2,0.6,1.2,1.2
				S639.7,803.5,639,803.5z"/>
		</g>
		<g>
			<path fill="#FFFFFF" d="M639,817.3h-30.1c-0.7,0-1.2-0.6-1.2-1.2s0.6-1.2,1.2-1.2H639c0.7,0,1.2,0.6,1.2,1.2
				S639.7,817.3,639,817.3z"/>
		</g>
		<g>
			<path fill="#FFFFFF" d="M791.1,813.8h-54.9c-0.7,0-1.2-0.6-1.2-1.2v-24.1c0-0.7,0.6-1.2,1.2-1.2h54.9c0.7,0,1.2,0.6,1.2,1.2v24.1
				C792.3,813.3,791.8,813.8,791.1,813.8z M737.5,811.3h52.4v-21.6h-52.4V811.3z"/>
		</g>
	</g>
	<g>
		<g>
			<path fill="#FFFFFF" d="M905.2,861.3c-8.9,0-16.1-7.2-16.1-16c0-8.9,7.2-16.1,16.1-16.1s16.1,7.2,16.1,16.1
				C921.2,854.1,914,861.3,905.2,861.3z M905.2,831.7c-7.5,0-13.6,6.1-13.6,13.6s6.1,13.6,13.6,13.6c7.5,0,13.6-6.1,13.6-13.6
				S912.7,831.7,905.2,831.7z"/>
		</g>
		<g>
			<path fill="#FFFFFF" d="M890.4,846.5h-43.6c-0.7,0-1.2-0.6-1.2-1.2c0-0.7,0.6-1.2,1.2-1.2h43.6c0.7,0,1.2,0.6,1.2,1.2
				C891.6,845.9,891,846.5,890.4,846.5z"/>
		</g>
	</g>
	<g>
		<g>
			<path fill="#FFFFFF" d="M902.5,168.9c-7.9,0-14.3-6.4-14.3-14.3c0-7.9,6.4-14.3,14.3-14.3s14.3,6.4,14.3,14.3
				C916.8,162.4,910.4,168.9,902.5,168.9z M902.5,142.6c-6.6,0-11.9,5.3-11.9,11.9c0,6.5,5.3,11.9,11.9,11.9
				c6.5,0,11.9-5.3,11.9-11.9C914.4,148,909,142.6,902.5,142.6z"/>
		</g>
		<g>
			<path fill="#FFFFFF" d="M889.4,155.8h-38.6c-0.7,0-1.2-0.6-1.2-1.2c0-0.7,0.6-1.2,1.2-1.2h38.6c0.7,0,1.2,0.6,1.2,1.2
				C890.6,155.2,890.1,155.8,889.4,155.8z"/>
		</g>
	</g>
	<g>
		<g>
			<path fill="#FFFFFF" d="M491.2,168.9c-7.9,0-14.3-6.4-14.3-14.3c0-7.9,6.4-14.3,14.3-14.3c7.9,0,14.3,6.4,14.3,14.3
				C505.5,162.4,499.1,168.9,491.2,168.9z M491.2,142.6c-6.5,0-11.9,5.3-11.9,11.9c0,6.5,5.3,11.9,11.9,11.9
				c6.5,0,11.9-5.3,11.9-11.9C503.1,148,497.7,142.6,491.2,142.6z"/>
		</g>
		<g>
			<path fill="#FFFFFF" d="M542.9,155.8h-38.6c-0.7,0-1.2-0.6-1.2-1.2c0-0.7,0.6-1.2,1.2-1.2h38.6c0.7,0,1.2,0.6,1.2,1.2
				C544.1,155.2,543.5,155.8,542.9,155.8z"/>
		</g>
	</g>
	<g>
		<g>
			<path fill="#FFFFFF" d="M494.8,861.3c-8.9,0-16.1-7.2-16.1-16c0-8.9,7.2-16.1,16.1-16.1c8.9,0,16.1,7.2,16.1,16.1
				C510.9,854.1,503.7,861.3,494.8,861.3z M494.8,831.7c-7.5,0-13.6,6.1-13.6,13.6s6.1,13.6,13.6,13.6c7.5,0,13.6-6.1,13.6-13.6
				S502.3,831.7,494.8,831.7z"/>
		</g>
		<g>
			<path fill="#FFFFFF" d="M553.2,846.5h-43.6c-0.7,0-1.2-0.6-1.2-1.2c0-0.7,0.6-1.2,1.2-1.2h43.6c0.7,0,1.2,0.6,1.2,1.2
				C554.5,845.9,553.9,846.5,553.2,846.5z"/>
		</g>
	</g>
	<g>
		<g>
			<path fill="#FFFFFF" d="M819.6,205.3H575.9c-0.7,0-1.2-0.6-1.2-1.2V56c0-0.7,0.6-1.2,1.2-1.2h243.8c0.7,0,1.2,0.6,1.2,1.2v148
				C820.9,204.7,820.3,205.3,819.6,205.3z M577.1,202.8h241.3V57.2H577.1V202.8z"/>
		</g>
		<g>
			<path fill="#FFFFFF" d="M806.3,191.9h-217c-0.7,0-1.2-0.6-1.2-1.2V69.3c0-0.7,0.6-1.2,1.2-1.2h217c0.7,0,1.2,0.6,1.2,1.2v121.3
				C807.5,191.3,807,191.9,806.3,191.9z M590.5,189.4H805V70.6H590.5V189.4z"/>
		</g>
		<g>
			<path fill="#FFFFFF" d="M852.1,221.2H544.2c-0.7,0-1.2-0.6-1.2-1.2v-16c0-0.7,0.6-1.2,1.2-1.2h307.9c0.7,0,1.2,0.6,1.2,1.2v16
				C853.3,220.7,852.8,221.2,852.1,221.2z M545.4,218.7h305.5v-13.5H545.4V218.7z"/>
		</g>
		<g>
			<path fill="#FFFFFF" d="M605.9,91.4c-3.3,0-6-2.7-6-6c0-3.3,2.7-6,6-6c3.3,0,6,2.7,6,6C611.9,88.8,609.2,91.4,605.9,91.4z
				 M605.9,82c-1.9,0-3.5,1.6-3.5,3.5c0,1.9,1.6,3.5,3.5,3.5c1.9,0,3.5-1.6,3.5-3.5C609.4,83.6,607.9,82,605.9,82z"/>
		</g>
		<g>
			<path fill="#FFFFFF" d="M605.9,107.1c-3.3,0-6-2.7-6-6c0-3.3,2.7-6,6-6c3.3,0,6,2.7,6,6C611.9,104.4,609.2,107.1,605.9,107.1z
				 M605.9,97.6c-1.9,0-3.5,1.6-3.5,3.5c0,1.9,1.6,3.5,3.5,3.5c1.9,0,3.5-1.6,3.5-3.5C609.4,99.2,607.9,97.6,605.9,97.6z"/>
		</g>
		<g>
			<path fill="#FFFFFF" d="M605.9,122.7c-3.3,0-6-2.7-6-6c0-3.3,2.7-6,6-6c3.3,0,6,2.7,6,6C611.9,120,609.2,122.7,605.9,122.7z
				 M605.9,113.3c-1.9,0-3.5,1.6-3.5,3.5s1.6,3.5,3.5,3.5c1.9,0,3.5-1.6,3.5-3.5S607.9,113.3,605.9,113.3z"/>
		</g>
		<g>
			<path fill="#FFFFFF" d="M605.9,138.4c-3.3,0-6-2.7-6-6c0-3.3,2.7-6,6-6c3.3,0,6,2.7,6,6C611.9,135.7,609.2,138.4,605.9,138.4z
				 M605.9,128.9c-1.9,0-3.5,1.6-3.5,3.5c0,1.9,1.6,3.5,3.5,3.5c1.9,0,3.5-1.6,3.5-3.5C609.4,130.5,607.9,128.9,605.9,128.9z"/>
		</g>
		<g>
			<path fill="#FFFFFF" d="M685.5,86.7H619c-0.7,0-1.2-0.6-1.2-1.2c0-0.7,0.6-1.2,1.2-1.2h66.5c0.7,0,1.2,0.6,1.2,1.2
				C686.7,86.2,686.2,86.7,685.5,86.7z"/>
		</g>
		<g>
			<path fill="#FFFFFF" d="M713.6,86.7h-17.5c-0.7,0-1.2-0.6-1.2-1.2c0-0.7,0.6-1.2,1.2-1.2h17.5c0.7,0,1.2,0.6,1.2,1.2
				C714.8,86.2,714.3,86.7,713.6,86.7z"/>
		</g>
		<g>
			<path fill="#FFFFFF" d="M685.5,102.3H619c-0.7,0-1.2-0.6-1.2-1.2s0.6-1.2,1.2-1.2h66.5c0.7,0,1.2,0.6,1.2,1.2
				S686.2,102.3,685.5,102.3z"/>
		</g>
		<g>
			<path fill="#FFFFFF" d="M713.6,102.3h-17.5c-0.7,0-1.2-0.6-1.2-1.2s0.6-1.2,1.2-1.2h17.5c0.7,0,1.2,0.6,1.2,1.2
				S714.3,102.3,713.6,102.3z"/>
		</g>
		<g>
			<path fill="#FFFFFF" d="M685.5,118H619c-0.7,0-1.2-0.6-1.2-1.2c0-0.7,0.6-1.2,1.2-1.2h66.5c0.7,0,1.2,0.6,1.2,1.2
				C686.7,117.4,686.2,118,685.5,118z"/>
		</g>
		<g>
			<path fill="#FFFFFF" d="M713.6,118h-17.5c-0.7,0-1.2-0.6-1.2-1.2c0-0.7,0.6-1.2,1.2-1.2h17.5c0.7,0,1.2,0.6,1.2,1.2
				C714.8,117.4,714.3,118,713.6,118z"/>
		</g>
		<g>
			<path fill="#FFFFFF" d="M685.5,133.6H619c-0.7,0-1.2-0.6-1.2-1.2c0-0.7,0.6-1.2,1.2-1.2h66.5c0.7,0,1.2,0.6,1.2,1.2
				C686.7,133.1,686.2,133.6,685.5,133.6z"/>
		</g>
		<g>
			<path fill="#FFFFFF" d="M713.6,133.6h-17.5c-0.7,0-1.2-0.6-1.2-1.2c0-0.7,0.6-1.2,1.2-1.2h17.5c0.7,0,1.2,0.6,1.2,1.2
				C714.8,133.1,714.3,133.6,713.6,133.6z"/>
		</g>
		<g>
			<path fill="#FFFFFF" d="M701.7,179h-95.7c-0.7,0-1.2-0.6-1.2-1.2v-27.5c0-0.7,0.6-1.2,1.2-1.2h95.7c0.7,0,1.2,0.6,1.2,1.2v27.5
				C702.9,178.4,702.3,179,701.7,179z M607.2,176.5h93.3v-25.1h-93.3V176.5z"/>
		</g>
		<g>
			<path fill="#FFFFFF" d="M737.1,170.2h-10.7c-0.7,0-1.2-0.6-1.2-1.2v-14.5c0-0.7,0.6-1.2,1.2-1.2h10.7c0.7,0,1.2,0.6,1.2,1.2V169
				C738.3,169.7,737.8,170.2,737.1,170.2z M727.6,167.8h8.3v-12h-8.3V167.8z"/>
		</g>
		<g>
			<path fill="#FFFFFF" d="M754.3,170.2h-10.7c-0.7,0-1.2-0.6-1.2-1.2v-47.9c0-0.7,0.6-1.2,1.2-1.2h10.7c0.7,0,1.2,0.6,1.2,1.2V169
				C755.5,169.7,755,170.2,754.3,170.2z M744.8,167.8h8.3v-45.4h-8.3V167.8z"/>
		</g>
		<g>
			<path fill="#FFFFFF" d="M771.5,170.2h-10.7c-0.7,0-1.2-0.6-1.2-1.2v-42.6c0-0.7,0.6-1.2,1.2-1.2h10.7c0.7,0,1.2,0.6,1.2,1.2V169
				C772.7,169.7,772.2,170.2,771.5,170.2z M762,167.8h8.3v-40.1H762V167.8z"/>
		</g>
		<g>
			<path fill="#FFFFFF" d="M788.7,170.2H778c-0.7,0-1.2-0.6-1.2-1.2v-25.2c0-0.7,0.6-1.2,1.2-1.2h10.7c0.7,0,1.2,0.6,1.2,1.2V169
				C789.9,169.7,789.4,170.2,788.7,170.2z M779.2,167.8h8.3v-22.7h-8.3V167.8z"/>
		</g>
		<g>
			<path fill="#FFFFFF" d="M788.7,179.1h-62.3c-0.7,0-1.2-0.6-1.2-1.2c0-0.7,0.6-1.2,1.2-1.2h62.3c0.7,0,1.2,0.6,1.2,1.2
				C789.9,178.6,789.4,179.1,788.7,179.1z"/>
		</g>
		<g>
			<path fill="#FFFFFF" d="M789.5,117.7c-0.1,0-0.3,0-0.4-0.1l-18.3-6.4c-0.3-0.1-0.5-0.3-0.7-0.5l-10.4-17.5l-11.4-4.7l-15.6,28.6
				c-0.3,0.6-1.1,0.8-1.7,0.5c-0.6-0.3-0.8-1.1-0.5-1.7l16.1-29.6c0.3-0.6,1-0.8,1.6-0.6l12.8,5.3c0.2,0.1,0.5,0.3,0.6,0.5
				l10.4,17.5l17.9,6.3c0.6,0.2,1,0.9,0.8,1.6C790.5,117.4,790,117.7,789.5,117.7z"/>
		</g>
	</g>
	<g>
		<path fill="#FFFFFF" d="M1169.5,221.2H962c-0.7,0-1.2-0.6-1.2-1.2V82.3c0-0.7,0.6-1.2,1.2-1.2h207.5c0.7,0,1.2,0.6,1.2,1.2V220
			C1170.7,220.7,1170.2,221.2,1169.5,221.2z M963.2,218.7h205.1V83.6H963.2V218.7z"/>
	</g>
	<g>
		<path fill="#FFFFFF" d="M1066,83.6C1066,83.6,1066,83.6,1066,83.6H962c-0.7,0-1.2-0.6-1.2-1.2V52.7c0-0.7,0.6-1.2,1.2-1.2h78.6
			c0.4,0,0.7,0.2,0.9,0.4l25.2,29.4c0.3,0.2,0.5,0.6,0.5,1C1067.2,83,1066.7,83.6,1066,83.6z M963.2,81.1h100.1L1040,53.9h-76.8
			V81.1z"/>
	</g>
	<g>
		<path fill="#FFFFFF" d="M1141,108.7H990.9c-0.7,0-1.2-0.6-1.2-1.2c0-0.7,0.6-1.2,1.2-1.2H1141c0.7,0,1.2,0.6,1.2,1.2
			C1142.2,108.2,1141.7,108.7,1141,108.7z"/>
	</g>
	<g>
		<path fill="#FFFFFF" d="M1011.2,169.9c-6.8,0-12.4-5.5-12.4-12.3c0-6.8,5.5-12.3,12.4-12.3c6.8,0,12.3,5.5,12.3,12.3
			C1023.5,164.3,1018,169.9,1011.2,169.9z M1011.2,147.6c-5.5,0-9.9,4.4-9.9,9.9c0,5.4,4.4,9.9,9.9,9.9c5.4,0,9.9-4.4,9.9-9.9
			C1021,152.1,1016.6,147.6,1011.2,147.6z"/>
	</g>
	<g>
		<path fill="#FFFFFF" d="M1066,169.9c-6.8,0-12.3-5.5-12.3-12.3c0-6.8,5.5-12.3,12.3-12.3s12.4,5.5,12.4,12.3
			C1078.3,164.3,1072.8,169.9,1066,169.9z M1066,147.6c-5.4,0-9.9,4.4-9.9,9.9c0,5.4,4.4,9.9,9.9,9.9c5.5,0,9.9-4.4,9.9-9.9
			C1075.8,152.1,1071.4,147.6,1066,147.6z"/>
	</g>
	<g>
		<path fill="#FFFFFF" d="M1120.8,169.9c-6.8,0-12.3-5.5-12.3-12.3c0-6.8,5.5-12.3,12.3-12.3c6.8,0,12.3,5.5,12.3,12.3
			C1133.1,164.3,1127.6,169.9,1120.8,169.9z M1120.8,147.6c-5.4,0-9.9,4.4-9.9,9.9c0,5.4,4.4,9.9,9.9,9.9c5.5,0,9.9-4.4,9.9-9.9
			C1130.6,152.1,1126.2,147.6,1120.8,147.6z"/>
	</g>
	<g>
		<path fill="#FFFFFF" d="M1011.2,147.6c-0.7,0-1.2-0.6-1.2-1.2v-15.1c0-0.7,0.6-1.2,1.2-1.2s1.2,0.6,1.2,1.2v15.1
			C1012.4,147.1,1011.8,147.6,1011.2,147.6z"/>
	</g>
	<g>
		<path fill="#FFFFFF" d="M1011.2,184.9c-0.7,0-1.2-0.6-1.2-1.2v-15.1c0-0.7,0.6-1.2,1.2-1.2s1.2,0.6,1.2,1.2v15.1
			C1012.4,184.4,1011.8,184.9,1011.2,184.9z"/>
	</g>
	<g>
		<path fill="#FFFFFF" d="M1065.8,147.6c-0.7,0-1.2-0.6-1.2-1.2v-15.1c0-0.7,0.6-1.2,1.2-1.2c0.7,0,1.2,0.6,1.2,1.2v15.1
			C1067,147.1,1066.4,147.6,1065.8,147.6z"/>
	</g>
	<g>
		<path fill="#FFFFFF" d="M1065.8,184.9c-0.7,0-1.2-0.6-1.2-1.2v-15.1c0-0.7,0.6-1.2,1.2-1.2c0.7,0,1.2,0.6,1.2,1.2v15.1
			C1067,184.4,1066.4,184.9,1065.8,184.9z"/>
	</g>
	<g>
		<path fill="#FFFFFF" d="M1120.3,147.6c-0.7,0-1.2-0.6-1.2-1.2v-15.1c0-0.7,0.6-1.2,1.2-1.2c0.7,0,1.2,0.6,1.2,1.2v15.1
			C1121.6,147.1,1121,147.6,1120.3,147.6z"/>
	</g>
	<g>
		<path fill="#FFFFFF" d="M1120.3,184.9c-0.7,0-1.2-0.6-1.2-1.2v-15.1c0-0.7,0.6-1.2,1.2-1.2c0.7,0,1.2,0.6,1.2,1.2v15.1
			C1121.6,184.4,1121,184.9,1120.3,184.9z"/>
	</g>
	<g>
		<g>
			<path fill="#FFFFFF" d="M1161.1,909.6H970.4c-0.7,0-1.2-0.6-1.2-1.2V753.9c0-0.7,0.6-1.2,1.2-1.2h190.7c0.7,0,1.2,0.6,1.2,1.2
				v154.5C1162.3,909.1,1161.8,909.6,1161.1,909.6z M971.6,907.2h188.2V755.1H971.6V907.2z"/>
		</g>
		<g>
			<path fill="#FFFFFF" d="M1148.8,827.5h-166c-0.7,0-1.2-0.6-1.2-1.2v-62.6c0-0.7,0.6-1.2,1.2-1.2h166c0.7,0,1.2,0.6,1.2,1.2v62.6
				C1150,827,1149.5,827.5,1148.8,827.5z M984,825.1h163.6v-60.1H984V825.1z"/>
		</g>
		<g>
			<path fill="#FFFFFF" d="M1148.8,899.6h-166c-0.7,0-1.2-0.6-1.2-1.2v-62.6c0-0.7,0.6-1.2,1.2-1.2h166c0.7,0,1.2,0.6,1.2,1.2v62.6
				C1150,899.1,1149.5,899.6,1148.8,899.6z M984,897.2h163.6V837H984V897.2z"/>
		</g>
		<g>
			<path fill="#FFFFFF" d="M1075.6,951.8h-19.7c-0.7,0-1.2-0.6-1.2-1.2v-42.2c0-0.7,0.6-1.2,1.2-1.2h19.7c0.7,0,1.2,0.6,1.2,1.2
				v42.2C1076.8,951.3,1076.3,951.8,1075.6,951.8z M1057.1,949.3h17.3v-39.7h-17.3V949.3z"/>
		</g>
		<g>
			<path fill="#FFFFFF" d="M1118.8,951.8h-106c-0.7,0-1.2-0.6-1.2-1.2c0-0.7,0.6-1.2,1.2-1.2h106c0.7,0,1.2,0.6,1.2,1.2
				C1120,951.3,1119.5,951.8,1118.8,951.8z"/>
		</g>
		<g>
			<path fill="#FFFFFF" d="M1000.4,801.2c-3.4,0-6.2-2.8-6.2-6.2c0-3.4,2.8-6.2,6.2-6.2s6.2,2.8,6.2,6.2
				C1006.6,798.4,1003.8,801.2,1000.4,801.2z M1000.4,791.3c-2,0-3.7,1.7-3.7,3.7s1.7,3.7,3.7,3.7s3.7-1.7,3.7-3.7
				S1002.4,791.3,1000.4,791.3z"/>
		</g>
		<g>
			<path fill="#FFFFFF" d="M1021.9,801.2c-3.4,0-6.2-2.8-6.2-6.2c0-3.4,2.8-6.2,6.2-6.2c3.4,0,6.2,2.8,6.2,6.2
				C1028,798.4,1025.3,801.2,1021.9,801.2z M1021.9,791.3c-2,0-3.7,1.7-3.7,3.7s1.7,3.7,3.7,3.7s3.7-1.7,3.7-3.7
				S1023.9,791.3,1021.9,791.3z"/>
		</g>
		<g>
			<path fill="#FFFFFF" d="M1043.3,801.2c-3.4,0-6.2-2.8-6.2-6.2c0-3.4,2.8-6.2,6.2-6.2c3.4,0,6.2,2.8,6.2,6.2
				C1049.5,798.4,1046.7,801.2,1043.3,801.2z M1043.3,791.3c-2,0-3.7,1.7-3.7,3.7s1.7,3.7,3.7,3.7s3.7-1.7,3.7-3.7
				S1045.4,791.3,1043.3,791.3z"/>
		</g>
		<g>
			<path fill="#FFFFFF" d="M1064.8,801.2c-3.4,0-6.2-2.8-6.2-6.2c0-3.4,2.8-6.2,6.2-6.2c3.4,0,6.2,2.8,6.2,6.2
				C1070.9,798.4,1068.2,801.2,1064.8,801.2z M1064.8,791.3c-2,0-3.7,1.7-3.7,3.7s1.7,3.7,3.7,3.7s3.7-1.7,3.7-3.7
				S1066.8,791.3,1064.8,791.3z"/>
		</g>
		<g>
			<path fill="#FFFFFF" d="M1136,782.8H1081c-0.7,0-1.2-0.6-1.2-1.2V775c0-0.7,0.6-1.2,1.2-1.2h55.1c0.7,0,1.2,0.6,1.2,1.2v6.5
				C1137.3,782.2,1136.7,782.8,1136,782.8z M1082.2,780.3h52.6v-4.1h-52.6V780.3z"/>
		</g>
		<g>
			<path fill="#FFFFFF" d="M1136,799.5H1081c-0.7,0-1.2-0.6-1.2-1.2v-6.5c0-0.7,0.6-1.2,1.2-1.2h55.1c0.7,0,1.2,0.6,1.2,1.2v6.5
				C1137.3,798.9,1136.7,799.5,1136,799.5z M1082.2,797h52.6V793h-52.6V797z"/>
		</g>
		<g>
			<path fill="#FFFFFF" d="M1136,816.2H1081c-0.7,0-1.2-0.6-1.2-1.2v-6.5c0-0.7,0.6-1.2,1.2-1.2h55.1c0.7,0,1.2,0.6,1.2,1.2v6.5
				C1137.3,815.6,1136.7,816.2,1136,816.2z M1082.2,813.7h52.6v-4.1h-52.6V813.7z"/>
		</g>
		<g>
			<path fill="#FFFFFF" d="M1000.4,873.3c-3.4,0-6.2-2.8-6.2-6.2c0-3.4,2.8-6.2,6.2-6.2s6.2,2.8,6.2,6.2
				C1006.6,870.5,1003.8,873.3,1000.4,873.3z M1000.4,863.4c-2,0-3.7,1.7-3.7,3.7c0,2,1.7,3.7,3.7,3.7s3.7-1.7,3.7-3.7
				C1004.1,865,1002.4,863.4,1000.4,863.4z"/>
		</g>
		<g>
			<path fill="#FFFFFF" d="M1021.9,873.3c-3.4,0-6.2-2.8-6.2-6.2c0-3.4,2.8-6.2,6.2-6.2c3.4,0,6.2,2.8,6.2,6.2
				C1028,870.5,1025.3,873.3,1021.9,873.3z M1021.9,863.4c-2,0-3.7,1.7-3.7,3.7c0,2,1.7,3.7,3.7,3.7s3.7-1.7,3.7-3.7
				C1025.6,865,1023.9,863.4,1021.9,863.4z"/>
		</g>
		<g>
			<path fill="#FFFFFF" d="M1043.3,873.3c-3.4,0-6.2-2.8-6.2-6.2c0-3.4,2.8-6.2,6.2-6.2c3.4,0,6.2,2.8,6.2,6.2
				C1049.5,870.5,1046.7,873.3,1043.3,873.3z M1043.3,863.4c-2,0-3.7,1.7-3.7,3.7c0,2,1.7,3.7,3.7,3.7s3.7-1.7,3.7-3.7
				C1047,865,1045.4,863.4,1043.3,863.4z"/>
		</g>
		<g>
			<path fill="#FFFFFF" d="M1064.8,873.3c-3.4,0-6.2-2.8-6.2-6.2c0-3.4,2.8-6.2,6.2-6.2c3.4,0,6.2,2.8,6.2,6.2
				C1070.9,870.5,1068.2,873.3,1064.8,873.3z M1064.8,863.4c-2,0-3.7,1.7-3.7,3.7c0,2,1.7,3.7,3.7,3.7s3.7-1.7,3.7-3.7
				C1068.5,865,1066.8,863.4,1064.8,863.4z"/>
		</g>
		<g>
			<path fill="#FFFFFF" d="M1136,854.9H1081c-0.7,0-1.2-0.6-1.2-1.2v-6.5c0-0.7,0.6-1.2,1.2-1.2h55.1c0.7,0,1.2,0.6,1.2,1.2v6.5
				C1137.3,854.3,1136.7,854.9,1136,854.9z M1082.2,852.4h52.6v-4.1h-52.6V852.4z"/>
		</g>
		<g>
			<path fill="#FFFFFF" d="M1136,871.6H1081c-0.7,0-1.2-0.6-1.2-1.2v-6.5c0-0.7,0.6-1.2,1.2-1.2h55.1c0.7,0,1.2,0.6,1.2,1.2v6.5
				C1137.3,871,1136.7,871.6,1136,871.6z M1082.2,869.1h52.6v-4.1h-52.6V869.1z"/>
		</g>
		<g>
			<path fill="#FFFFFF" d="M1136,888.3H1081c-0.7,0-1.2-0.6-1.2-1.2v-6.5c0-0.7,0.6-1.2,1.2-1.2h55.1c0.7,0,1.2,0.6,1.2,1.2v6.5
				C1137.3,887.7,1136.7,888.3,1136,888.3z M1082.2,885.8h52.6v-4.1h-52.6V885.8z"/>
		</g>
	</g>
	<g>
		<g>
			<path fill="#FFFFFF" d="M410.1,219.5H290.2c-12.3,0-22.4-10-22.4-22.4V77.1c0-12.3,10-22.4,22.4-22.4h119.9
				c12.3,0,22.4,10,22.4,22.4v119.9C432.5,209.4,422.4,219.5,410.1,219.5z M290.2,57.2c-11,0-19.9,8.9-19.9,19.9v119.9
				c0,11,8.9,19.9,19.9,19.9h119.9c11,0,19.9-8.9,19.9-19.9V77.1c0-11-8.9-19.9-19.9-19.9H290.2z"/>
		</g>
		<g>
			<path fill="#FFFFFF" d="M350.1,84.8c-0.7,0-1.2-0.6-1.2-1.2V56c0-0.7,0.6-1.2,1.2-1.2s1.2,0.6,1.2,1.2v27.6
				C351.4,84.2,350.8,84.8,350.1,84.8z"/>
		</g>
		<g>
			<path fill="#FFFFFF" d="M350.1,219.5c-0.7,0-1.2-0.6-1.2-1.2v-27.6c0-0.7,0.6-1.2,1.2-1.2s1.2,0.6,1.2,1.2v27.6
				C351.4,218.9,350.8,219.5,350.1,219.5z"/>
		</g>
		<g>
			<path fill="#FFFFFF" d="M431.3,138.4h-27.6c-0.7,0-1.2-0.6-1.2-1.2s0.6-1.2,1.2-1.2h27.6c0.7,0,1.2,0.6,1.2,1.2
				S431.9,138.4,431.3,138.4z"/>
		</g>
		<g>
			<path fill="#FFFFFF" d="M296.5,138.4H269c-0.7,0-1.2-0.6-1.2-1.2s0.6-1.2,1.2-1.2h27.6c0.7,0,1.2,0.6,1.2,1.2
				S297.2,138.4,296.5,138.4z"/>
		</g>
		<g>
			<path fill="#FFFFFF" d="M350.1,155.7c-10.2,0-18.6-8.3-18.6-18.6c0-10.2,8.3-18.6,18.6-18.6c10.2,0,18.6,8.3,18.6,18.6
				C368.7,147.4,360.4,155.7,350.1,155.7z M350.1,121c-8.9,0-16.1,7.2-16.1,16.1s7.2,16.1,16.1,16.1c8.9,0,16.1-7.2,16.1-16.1
				S359,121,350.1,121z"/>
		</g>
		<g>
			<path fill="#FFFFFF" d="M338.1,125.9c-0.3,0-0.6-0.1-0.9-0.4l-19-19c-0.5-0.5-0.5-1.3,0-1.7c0.5-0.5,1.3-0.5,1.7,0l19,19
				c0.5,0.5,0.5,1.3,0,1.7C338.7,125.8,338.4,125.9,338.1,125.9z"/>
		</g>
		<g>
			<path fill="#FFFFFF" d="M372.4,205.7c-0.5,0-1-0.3-1.2-0.9L356,153.3c-0.2-0.7,0.2-1.3,0.8-1.5c0.7-0.2,1.3,0.2,1.5,0.8
				l15.2,51.5c0.2,0.7-0.2,1.3-0.8,1.5C372.6,205.7,372.5,205.7,372.4,205.7z"/>
		</g>
	</g>
	<g>
		<g>
			<path fill="#FFFFFF" d="M331.6,882.3c-23.8,0-43.2-19.4-43.2-43.2c0-23.8,19.4-43.2,43.2-43.2c23.8,0,43.2,19.4,43.2,43.2
				C374.8,862.9,355.4,882.3,331.6,882.3z M331.6,798.4c-22.4,0-40.7,18.3-40.7,40.7s18.3,40.7,40.7,40.7
				c22.4,0,40.7-18.3,40.7-40.7S354.1,798.4,331.6,798.4z"/>
		</g>
		<g>
			<path fill="#FFFFFF" d="M315.6,862.6c-0.2,0-0.4-0.1-0.6-0.2c-0.4-0.2-0.6-0.6-0.6-1.1v-46.2c0-0.4,0.2-0.8,0.6-1.1
				c0.4-0.2,0.9-0.2,1.2,0l40,23.1c0.4,0.2,0.6,0.6,0.6,1.1c0,0.4-0.2,0.8-0.6,1.1l-40,23.1C316,862.5,315.8,862.6,315.6,862.6z
				 M316.8,817.3v41.9l36.3-21L316.8,817.3z"/>
		</g>
		<g>
			<path fill="#FFFFFF" d="M232.1,921.1c-0.2,0-0.4-0.1-0.6-0.2c-0.4-0.2-0.6-0.6-0.6-1.1v-12.1c0-0.4,0.2-0.8,0.6-1.1
				c0.4-0.2,0.9-0.2,1.2,0l10.4,6c0.4,0.2,0.6,0.6,0.6,1.1c0,0.4-0.2,0.8-0.6,1.1l-10.4,6C232.5,921,232.3,921.1,232.1,921.1z
				 M233.3,909.9v7.8l6.7-3.9L233.3,909.9z"/>
		</g>
		<g>
			<path fill="#FFFFFF" d="M445.4,933.4H217.9c-0.7,0-1.2-0.6-1.2-1.2V758.3c0-0.7,0.6-1.2,1.2-1.2h227.5c0.7,0,1.2,0.6,1.2,1.2
				v173.8C446.6,932.8,446,933.4,445.4,933.4z M219.1,930.9h225V759.6h-225V930.9z"/>
		</g>
		<g>
			<path fill="#FFFFFF" d="M433.4,899.5H229.9c-0.7,0-1.2-0.6-1.2-1.2V780c0-0.7,0.6-1.2,1.2-1.2h203.5c0.7,0,1.2,0.6,1.2,1.2v118.3
				C434.6,898.9,434,899.5,433.4,899.5z M231.1,897h201V781.2h-201V897z"/>
		</g>
		<g>
			<path fill="#FFFFFF" d="M229.9,775.2c-3.6,0-6.6-2.9-6.6-6.6c0-3.6,2.9-6.6,6.6-6.6c3.6,0,6.6,2.9,6.6,6.6
				C236.4,772.2,233.5,775.2,229.9,775.2z M229.9,764.5c-2.3,0-4.1,1.8-4.1,4.1c0,2.3,1.8,4.1,4.1,4.1c2.3,0,4.1-1.8,4.1-4.1
				C234,766.3,232.1,764.5,229.9,764.5z"/>
		</g>
		<g>
			<path fill="#FFFFFF" d="M276.7,769.8h-34.3c-0.7,0-1.2-0.6-1.2-1.2c0-0.7,0.6-1.2,1.2-1.2h34.3c0.7,0,1.2,0.6,1.2,1.2
				C278,769.3,277.4,769.8,276.7,769.8z"/>
		</g>
		<g>
			<path fill="#FFFFFF" d="M302.6,769.8h-16.4c-0.7,0-1.2-0.6-1.2-1.2c0-0.7,0.6-1.2,1.2-1.2h16.4c0.7,0,1.2,0.6,1.2,1.2
				C303.8,769.3,303.3,769.8,302.6,769.8z"/>
		</g>
		<g>
			<path fill="#FFFFFF" d="M307.2,915h-53.8c-0.7,0-1.2-0.6-1.2-1.2c0-0.7,0.6-1.2,1.2-1.2h53.8c0.7,0,1.2,0.6,1.2,1.2
				C308.5,914.5,307.9,915,307.2,915z"/>
		</g>
		<g>
			<path fill="#FFFFFF" d="M433.3,915H331.6c-0.7,0-1.2-0.6-1.2-1.2c0-0.7,0.6-1.2,1.2-1.2h101.7c0.7,0,1.2,0.6,1.2,1.2
				C434.6,914.5,434,915,433.3,915z"/>
		</g>
		<g>
			<path fill="#FFFFFF" d="M320.1,921.1c-4,0-7.3-3.3-7.3-7.3c0-4,3.3-7.3,7.3-7.3c4,0,7.3,3.3,7.3,7.3
				C327.4,917.8,324.1,921.1,320.1,921.1z M320.1,909c-2.6,0-4.8,2.1-4.8,4.8c0,2.6,2.1,4.8,4.8,4.8c2.6,0,4.8-2.2,4.8-4.8
				C324.9,911.2,322.7,909,320.1,909z"/>
		</g>
	</g>
	<g>
		<g>
			<path fill="#FFFFFF" d="M908.6,415.7c-0.3,0-0.6-0.1-0.8-0.3c-0.5-0.4-0.6-1.2-0.1-1.7l66.6-77.2c0.2-0.3,0.6-0.4,0.9-0.4h113.4
				c0.7,0,1.2,0.6,1.2,1.2c0,0.7-0.6,1.2-1.2,1.2H975.7l-66.2,76.8C909.2,415.5,908.9,415.7,908.6,415.7z"/>
		</g>
		<g>
			<path fill="#FFFFFF" d="M977.6,458.1h-69c-0.7,0-1.2-0.6-1.2-1.2c0-0.7,0.6-1.2,1.2-1.2h67.8v-48.9c0-0.7,0.6-1.2,1.2-1.2h77.7
				c0.7,0,1.2,0.6,1.2,1.2c0,0.7-0.6,1.2-1.2,1.2h-76.4v48.9C978.8,457.5,978.3,458.1,977.6,458.1z"/>
		</g>
		<g>
			<path fill="#FFFFFF" d="M1088.6,632H975.1c-0.4,0-0.7-0.2-0.9-0.4l-66.6-77.2c-0.4-0.5-0.4-1.3,0.1-1.7c0.5-0.4,1.3-0.4,1.7,0.1
				l66.2,76.8h112.9c0.7,0,1.2,0.6,1.2,1.2C1089.8,631.5,1089.2,632,1088.6,632z"/>
		</g>
		<g>
			<path fill="#FFFFFF" d="M1030.6,694.2H908.6c-0.7,0-1.2-0.6-1.2-1.2v-83.5c0-0.7,0.6-1.2,1.2-1.2s1.2,0.6,1.2,1.2v82.3h120.8
				c0.7,0,1.2,0.6,1.2,1.2C1031.8,693.6,1031.3,694.2,1030.6,694.2z"/>
		</g>
		<g>
			<path fill="#FFFFFF" d="M1055.3,562.6h-77.7c-0.7,0-1.2-0.6-1.2-1.2v-48.9h-67.8c-0.7,0-1.2-0.6-1.2-1.2c0-0.7,0.6-1.2,1.2-1.2
				h69c0.7,0,1.2,0.6,1.2,1.2v48.9h76.4c0.7,0,1.2,0.6,1.2,1.2C1056.5,562,1056,562.6,1055.3,562.6z"/>
		</g>
		<g>
			<path fill="#FFFFFF" d="M1043.4,289.4c-7.9,0-14.3-6.4-14.3-14.3c0-7.9,6.4-14.3,14.3-14.3c7.9,0,14.3,6.4,14.3,14.3
				C1057.7,283,1051.3,289.4,1043.4,289.4z M1043.4,263.2c-6.5,0-11.9,5.3-11.9,11.9c0,6.6,5.3,11.9,11.9,11.9
				c6.5,0,11.9-5.3,11.9-11.9C1055.2,268.5,1049.9,263.2,1043.4,263.2z"/>
		</g>
		<g>
			<path fill="#FFFFFF" d="M1101.7,351.6c-7.9,0-14.3-6.4-14.3-14.3c0-7.9,6.4-14.3,14.3-14.3c7.9,0,14.3,6.4,14.3,14.3
				C1116,345.1,1109.6,351.6,1101.7,351.6z M1101.7,325.4c-6.6,0-11.9,5.3-11.9,11.9c0,6.6,5.3,11.9,11.9,11.9
				c6.5,0,11.9-5.3,11.9-11.9C1113.6,330.7,1108.2,325.4,1101.7,325.4z"/>
		</g>
		<g>
			<path fill="#FFFFFF" d="M1068.4,421c-7.9,0-14.3-6.4-14.3-14.3c0-7.9,6.4-14.3,14.3-14.3c7.9,0,14.3,6.4,14.3,14.3
				C1082.7,414.6,1076.3,421,1068.4,421z M1068.4,394.8c-6.6,0-11.9,5.3-11.9,11.9c0,6.5,5.3,11.9,11.9,11.9s11.9-5.3,11.9-11.9
				C1080.3,400.1,1074.9,394.8,1068.4,394.8z"/>
		</g>
		<g>
			<path fill="#FFFFFF" d="M1156.4,498.4c-7.9,0-14.3-6.4-14.3-14.3c0-7.9,6.4-14.3,14.3-14.3c7.9,0,14.3,6.4,14.3,14.3
				C1170.7,491.9,1164.3,498.4,1156.4,498.4z M1156.4,472.1c-6.5,0-11.9,5.3-11.9,11.9c0,6.5,5.3,11.9,11.9,11.9
				c6.5,0,11.9-5.3,11.9-11.9C1168.3,477.5,1163,472.1,1156.4,472.1z"/>
		</g>
		<g>
			<path fill="#FFFFFF" d="M1234,878.3c-7.9,0-14.3-6.4-14.3-14.3c0-7.9,6.4-14.3,14.3-14.3c7.9,0,14.3,6.4,14.3,14.3
				C1248.3,871.9,1241.9,878.3,1234,878.3z M1234,852.1c-6.5,0-11.9,5.3-11.9,11.9s5.3,11.9,11.9,11.9s11.9-5.3,11.9-11.9
				S1240.5,852.1,1234,852.1z"/>
		</g>
		<g>
			<path fill="#FFFFFF" d="M1310.4,878.3c-7.9,0-14.3-6.4-14.3-14.3c0-7.9,6.4-14.3,14.3-14.3c7.9,0,14.3,6.4,14.3,14.3
				C1324.8,871.9,1318.3,878.3,1310.4,878.3z M1310.4,852.1c-6.5,0-11.9,5.3-11.9,11.9s5.3,11.9,11.9,11.9c6.6,0,11.9-5.3,11.9-11.9
				S1317,852.1,1310.4,852.1z"/>
		</g>
		<g>
			<path fill="#FFFFFF" d="M1323.5,575.2c-7.9,0-14.3-6.4-14.3-14.3c0-7.9,6.4-14.3,14.3-14.3c7.9,0,14.3,6.4,14.3,14.3
				C1337.9,568.8,1331.5,575.2,1323.5,575.2z M1323.5,549c-6.6,0-11.9,5.3-11.9,11.9c0,6.6,5.3,11.9,11.9,11.9s11.9-5.3,11.9-11.9
				C1335.4,554.4,1330.1,549,1323.5,549z"/>
		</g>
		<g>
			<path fill="#FFFFFF" d="M1323.5,421c-7.9,0-14.3-6.4-14.3-14.3c0-7.9,6.4-14.3,14.3-14.3c7.9,0,14.3,6.4,14.3,14.3
				C1337.9,414.6,1331.5,421,1323.5,421z M1323.5,394.8c-6.6,0-11.9,5.3-11.9,11.9c0,6.5,5.3,11.9,11.9,11.9s11.9-5.3,11.9-11.9
				C1335.4,400.1,1330.1,394.8,1323.5,394.8z"/>
		</g>
		<g>
			<path fill="#FFFFFF" d="M1310.5,117.7c-7.9,0-14.3-6.4-14.3-14.3c0-7.9,6.4-14.3,14.3-14.3c7.9,0,14.3,6.4,14.3,14.3
				C1324.8,111.3,1318.4,117.7,1310.5,117.7z M1310.5,91.5c-6.5,0-11.9,5.3-11.9,11.9c0,6.5,5.3,11.9,11.9,11.9
				c6.6,0,11.9-5.3,11.9-11.9C1322.4,96.8,1317,91.5,1310.5,91.5z"/>
		</g>
		<g>
			<path fill="#FFFFFF" d="M1234,118c-7.9,0-14.3-6.4-14.3-14.3c0-7.9,6.4-14.3,14.3-14.3c7.9,0,14.3,6.4,14.3,14.3
				C1248.3,111.5,1241.9,118,1234,118z M1234,91.8c-6.5,0-11.9,5.3-11.9,11.9c0,6.6,5.3,11.9,11.9,11.9s11.9-5.3,11.9-11.9
				C1245.9,97.1,1240.5,91.8,1234,91.8z"/>
		</g>
		<g>
			<path fill="#FFFFFF" d="M1068.4,575.7c-7.9,0-14.3-6.4-14.3-14.3s6.4-14.3,14.3-14.3c7.9,0,14.3,6.4,14.3,14.3
				S1076.3,575.7,1068.4,575.7z M1068.4,549.5c-6.6,0-11.9,5.3-11.9,11.9s5.3,11.9,11.9,11.9s11.9-5.3,11.9-11.9
				S1074.9,549.5,1068.4,549.5z"/>
		</g>
		<g>
			<path fill="#FFFFFF" d="M1101.7,645.1c-7.9,0-14.3-6.4-14.3-14.3s6.4-14.3,14.3-14.3c7.9,0,14.3,6.4,14.3,14.3
				S1109.6,645.1,1101.7,645.1z M1101.7,618.9c-6.6,0-11.9,5.3-11.9,11.9c0,6.6,5.3,11.9,11.9,11.9c6.5,0,11.9-5.3,11.9-11.9
				C1113.6,624.2,1108.2,618.9,1101.7,618.9z"/>
		</g>
		<g>
			<path fill="#FFFFFF" d="M1043.7,707.3c-7.9,0-14.3-6.4-14.3-14.3c0-7.9,6.4-14.3,14.3-14.3c7.9,0,14.3,6.4,14.3,14.3
				C1058.1,700.9,1051.6,707.3,1043.7,707.3z M1043.7,681.1c-6.6,0-11.9,5.3-11.9,11.9c0,6.6,5.3,11.9,11.9,11.9
				c6.5,0,11.9-5.3,11.9-11.9C1055.6,686.4,1050.3,681.1,1043.7,681.1z"/>
		</g>
		<g>
			<path fill="#FFFFFF" d="M1234,276.3h-177.5c-0.7,0-1.2-0.6-1.2-1.2s0.6-1.2,1.2-1.2h176.3V116.8c0-0.7,0.6-1.2,1.2-1.2
				c0.7,0,1.2,0.6,1.2,1.2v158.3C1235.2,275.8,1234.7,276.3,1234,276.3z"/>
		</g>
		<g>
			<path fill="#FFFFFF" d="M1310.4,338.5h-195.6c-0.7,0-1.2-0.6-1.2-1.2c0-0.7,0.6-1.2,1.2-1.2h194.4V116.5c0-0.7,0.6-1.2,1.2-1.2
				c0.7,0,1.2,0.6,1.2,1.2v220.8C1311.7,337.9,1311.1,338.5,1310.4,338.5z"/>
		</g>
		<g>
			<path fill="#FFFFFF" d="M1310.4,407.9h-228.9c-0.7,0-1.2-0.6-1.2-1.2c0-0.7,0.6-1.2,1.2-1.2h228.9c0.7,0,1.2,0.6,1.2,1.2
				C1311.7,407.4,1311.1,407.9,1310.4,407.9z"/>
		</g>
		<g>
			<path fill="#FFFFFF" d="M1234,852.1c-0.7,0-1.2-0.6-1.2-1.2V693.8h-176.3c-0.7,0-1.2-0.6-1.2-1.2c0-0.7,0.6-1.2,1.2-1.2H1234
				c0.7,0,1.2,0.6,1.2,1.2v158.3C1235.2,851.6,1234.7,852.1,1234,852.1z"/>
		</g>
		<g>
			<path fill="#FFFFFF" d="M1310.4,852.4c-0.7,0-1.2-0.6-1.2-1.2V631.6h-194.4c-0.7,0-1.2-0.6-1.2-1.2s0.6-1.2,1.2-1.2h195.6
				c0.7,0,1.2,0.6,1.2,1.2v220.8C1311.7,851.9,1311.1,852.4,1310.4,852.4z"/>
		</g>
		<g>
			<path fill="#FFFFFF" d="M1310.4,562.2h-228.9c-0.7,0-1.2-0.6-1.2-1.2c0-0.7,0.6-1.2,1.2-1.2h228.9c0.7,0,1.2,0.6,1.2,1.2
				C1311.7,561.6,1311.1,562.2,1310.4,562.2z"/>
		</g>
		<g>
			<path fill="#FFFFFF" d="M1398.8,485.2h-229.3c-0.7,0-1.2-0.6-1.2-1.2c0-0.7,0.6-1.2,1.2-1.2h229.3c0.7,0,1.2,0.6,1.2,1.2
				C1400,484.7,1399.4,485.2,1398.8,485.2z"/>
		</g>
	</g>
	<g>
		<g>
			<path fill="#FFFFFF" d="M491.4,415.7c-0.3,0-0.7-0.1-0.9-0.4l-66.2-76.8H311.4c-0.7,0-1.2-0.6-1.2-1.2c0-0.7,0.6-1.2,1.2-1.2
				h113.4c0.4,0,0.7,0.2,0.9,0.4l66.6,77.2c0.4,0.5,0.4,1.3-0.1,1.7C492,415.6,491.7,415.7,491.4,415.7z"/>
		</g>
		<g>
			<path fill="#FFFFFF" d="M491.4,458.1h-69c-0.7,0-1.2-0.6-1.2-1.2v-48.9h-76.4c-0.7,0-1.2-0.6-1.2-1.2c0-0.7,0.6-1.2,1.2-1.2h77.7
				c0.7,0,1.2,0.6,1.2,1.2v48.9h67.8c0.7,0,1.2,0.6,1.2,1.2C492.7,457.5,492.1,458.1,491.4,458.1z"/>
		</g>
		<g>
			<path fill="#FFFFFF" d="M424.9,632H311.4c-0.7,0-1.2-0.6-1.2-1.2c0-0.7,0.6-1.2,1.2-1.2h112.9l66.2-76.8c0.4-0.5,1.2-0.6,1.7-0.1
				c0.5,0.4,0.6,1.2,0.1,1.7l-66.6,77.2C425.6,631.9,425.2,632,424.9,632z"/>
		</g>
		<g>
			<path fill="#FFFFFF" d="M491.4,694.2H369.4c-0.7,0-1.2-0.6-1.2-1.2c0-0.7,0.6-1.2,1.2-1.2h120.8v-82.3c0-0.7,0.6-1.2,1.2-1.2
				c0.7,0,1.2,0.6,1.2,1.2V693C492.7,693.6,492.1,694.2,491.4,694.2z"/>
		</g>
		<g>
			<path fill="#FFFFFF" d="M422.4,562.6h-77.7c-0.7,0-1.2-0.6-1.2-1.2c0-0.7,0.6-1.2,1.2-1.2h76.4v-48.9c0-0.7,0.6-1.2,1.2-1.2h69
				c0.7,0,1.2,0.6,1.2,1.2c0,0.7-0.6,1.2-1.2,1.2h-67.8v48.9C423.6,562,423.1,562.6,422.4,562.6z"/>
		</g>
		<g>
			<path fill="#FFFFFF" d="M356.6,289.4c-7.9,0-14.3-6.4-14.3-14.3c0-7.9,6.4-14.3,14.3-14.3c7.9,0,14.3,6.4,14.3,14.3
				C371,283,364.5,289.4,356.6,289.4z M356.6,263.2c-6.5,0-11.9,5.3-11.9,11.9c0,6.6,5.3,11.9,11.9,11.9c6.5,0,11.9-5.3,11.9-11.9
				C368.5,268.5,363.2,263.2,356.6,263.2z"/>
		</g>
		<g>
			<path fill="#FFFFFF" d="M298.3,351.6c-7.9,0-14.3-6.4-14.3-14.3c0-7.9,6.4-14.3,14.3-14.3c7.9,0,14.3,6.4,14.3,14.3
				C312.7,345.1,306.2,351.6,298.3,351.6z M298.3,325.4c-6.5,0-11.9,5.3-11.9,11.9c0,6.6,5.3,11.9,11.9,11.9
				c6.5,0,11.9-5.3,11.9-11.9C310.2,330.7,304.9,325.4,298.3,325.4z"/>
		</g>
		<g>
			<path fill="#FFFFFF" d="M331.6,421c-7.9,0-14.3-6.4-14.3-14.3c0-7.9,6.4-14.3,14.3-14.3c7.9,0,14.3,6.4,14.3,14.3
				C346,414.6,339.5,421,331.6,421z M331.6,394.8c-6.5,0-11.9,5.3-11.9,11.9c0,6.5,5.3,11.9,11.9,11.9c6.5,0,11.9-5.3,11.9-11.9
				C343.5,400.1,338.2,394.8,331.6,394.8z"/>
		</g>
		<g>
			<path fill="#FFFFFF" d="M243.6,498.4c-7.9,0-14.3-6.4-14.3-14.3c0-7.9,6.4-14.3,14.3-14.3c7.9,0,14.3,6.4,14.3,14.3
				C257.9,491.9,251.5,498.4,243.6,498.4z M243.6,472.1c-6.5,0-11.9,5.3-11.9,11.9c0,6.5,5.3,11.9,11.9,11.9
				c6.5,0,11.9-5.3,11.9-11.9C255.5,477.5,250.1,472.1,243.6,472.1z"/>
		</g>
		<g>
			<path fill="#FFFFFF" d="M166,878.3c-7.9,0-14.3-6.4-14.3-14.3c0-7.9,6.4-14.3,14.3-14.3s14.3,6.4,14.3,14.3
				C180.3,871.9,173.9,878.3,166,878.3z M166,852.1c-6.5,0-11.9,5.3-11.9,11.9s5.3,11.9,11.9,11.9s11.9-5.3,11.9-11.9
				S172.6,852.1,166,852.1z"/>
		</g>
		<g>
			<path fill="#FFFFFF" d="M89.6,878.3c-7.9,0-14.3-6.4-14.3-14.3c0-7.9,6.4-14.3,14.3-14.3c7.9,0,14.3,6.4,14.3,14.3
				C103.9,871.9,97.5,878.3,89.6,878.3z M89.6,852.1c-6.5,0-11.9,5.3-11.9,11.9s5.3,11.9,11.9,11.9s11.9-5.3,11.9-11.9
				S96.1,852.1,89.6,852.1z"/>
		</g>
		<g>
			<path fill="#FFFFFF" d="M76.5,575.2c-7.9,0-14.3-6.4-14.3-14.3c0-7.9,6.4-14.3,14.3-14.3c7.9,0,14.3,6.4,14.3,14.3
				C90.8,568.8,84.4,575.2,76.5,575.2z M76.5,549c-6.6,0-11.9,5.3-11.9,11.9c0,6.6,5.3,11.9,11.9,11.9c6.5,0,11.9-5.3,11.9-11.9
				C88.3,554.4,83,549,76.5,549z"/>
		</g>
		<g>
			<path fill="#FFFFFF" d="M76.5,421c-7.9,0-14.3-6.4-14.3-14.3c0-7.9,6.4-14.3,14.3-14.3c7.9,0,14.3,6.4,14.3,14.3
				C90.8,414.6,84.4,421,76.5,421z M76.5,394.8c-6.6,0-11.9,5.3-11.9,11.9c0,6.5,5.3,11.9,11.9,11.9c6.5,0,11.9-5.3,11.9-11.9
				C88.3,400.1,83,394.8,76.5,394.8z"/>
		</g>
		<g>
			<path fill="#FFFFFF" d="M89.5,117.7c-7.9,0-14.3-6.4-14.3-14.3c0-7.9,6.4-14.3,14.3-14.3c7.9,0,14.3,6.4,14.3,14.3
				C103.9,111.3,97.4,117.7,89.5,117.7z M89.5,91.5c-6.6,0-11.9,5.3-11.9,11.9c0,6.5,5.3,11.9,11.9,11.9c6.5,0,11.9-5.3,11.9-11.9
				C101.4,96.8,96.1,91.5,89.5,91.5z"/>
		</g>
		<g>
			<path fill="#FFFFFF" d="M166,118c-7.9,0-14.3-6.4-14.3-14.3c0-7.9,6.4-14.3,14.3-14.3s14.3,6.4,14.3,14.3
				C180.3,111.5,173.9,118,166,118z M166,91.8c-6.5,0-11.9,5.3-11.9,11.9c0,6.6,5.3,11.9,11.9,11.9s11.9-5.3,11.9-11.9
				C177.9,97.1,172.6,91.8,166,91.8z"/>
		</g>
		<g>
			<path fill="#FFFFFF" d="M331.6,575.7c-7.9,0-14.3-6.4-14.3-14.3s6.4-14.3,14.3-14.3c7.9,0,14.3,6.4,14.3,14.3
				S339.5,575.7,331.6,575.7z M331.6,549.5c-6.5,0-11.9,5.3-11.9,11.9s5.3,11.9,11.9,11.9c6.5,0,11.9-5.3,11.9-11.9
				S338.2,549.5,331.6,549.5z"/>
		</g>
		<g>
			<path fill="#FFFFFF" d="M298.3,645.1c-7.9,0-14.3-6.4-14.3-14.3s6.4-14.3,14.3-14.3c7.9,0,14.3,6.4,14.3,14.3
				S306.2,645.1,298.3,645.1z M298.3,618.9c-6.5,0-11.9,5.3-11.9,11.9c0,6.6,5.3,11.9,11.9,11.9c6.5,0,11.9-5.3,11.9-11.9
				C310.2,624.2,304.9,618.9,298.3,618.9z"/>
		</g>
		<g>
			<path fill="#FFFFFF" d="M356.3,707.3c-7.9,0-14.3-6.4-14.3-14.3c0-7.9,6.4-14.3,14.3-14.3s14.3,6.4,14.3,14.3
				C370.6,700.9,364.2,707.3,356.3,707.3z M356.3,681.1c-6.5,0-11.9,5.3-11.9,11.9c0,6.6,5.3,11.9,11.9,11.9
				c6.5,0,11.9-5.3,11.9-11.9C368.1,686.4,362.8,681.1,356.3,681.1z"/>
		</g>
		<g>
			<path fill="#FFFFFF" d="M343.5,276.3H166c-0.7,0-1.2-0.6-1.2-1.2V116.8c0-0.7,0.6-1.2,1.2-1.2s1.2,0.6,1.2,1.2v157.1h176.3
				c0.7,0,1.2,0.6,1.2,1.2S344.2,276.3,343.5,276.3z"/>
		</g>
		<g>
			<path fill="#FFFFFF" d="M285.2,338.5H89.6c-0.7,0-1.2-0.6-1.2-1.2V116.5c0-0.7,0.6-1.2,1.2-1.2s1.2,0.6,1.2,1.2V336h194.4
				c0.7,0,1.2,0.6,1.2,1.2C286.4,337.9,285.9,338.5,285.2,338.5z"/>
		</g>
		<g>
			<path fill="#FFFFFF" d="M318.5,407.9H89.6c-0.7,0-1.2-0.6-1.2-1.2c0-0.7,0.6-1.2,1.2-1.2h228.9c0.7,0,1.2,0.6,1.2,1.2
				C319.7,407.4,319.2,407.9,318.5,407.9z"/>
		</g>
		<g>
			<path fill="#FFFFFF" d="M166,852.1c-0.7,0-1.2-0.6-1.2-1.2V692.6c0-0.7,0.6-1.2,1.2-1.2h177.5c0.7,0,1.2,0.6,1.2,1.2
				c0,0.7-0.6,1.2-1.2,1.2H167.2v157.1C167.2,851.6,166.7,852.1,166,852.1z"/>
		</g>
		<g>
			<path fill="#FFFFFF" d="M89.6,852.4c-0.7,0-1.2-0.6-1.2-1.2V630.4c0-0.7,0.6-1.2,1.2-1.2h195.6c0.7,0,1.2,0.6,1.2,1.2
				s-0.6,1.2-1.2,1.2H90.8v219.5C90.8,851.9,90.2,852.4,89.6,852.4z"/>
		</g>
		<g>
			<path fill="#FFFFFF" d="M318.5,562.2H89.6c-0.7,0-1.2-0.6-1.2-1.2c0-0.7,0.6-1.2,1.2-1.2h228.9c0.7,0,1.2,0.6,1.2,1.2
				C319.7,561.6,319.2,562.2,318.5,562.2z"/>
		</g>
		<g>
			<path fill="#FFFFFF" d="M230.5,485.2H1.2c-0.7,0-1.2-0.6-1.2-1.2c0-0.7,0.6-1.2,1.2-1.2h229.3c0.7,0,1.2,0.6,1.2,1.2
				C231.7,484.7,231.2,485.2,230.5,485.2z"/>
		</g>
	</g>
</g>
</svg>
